<?xml version="1.0" standalone="no"?>
<!DOCTYPE svg PUBLIC "-//W3C//DTD SVG 20010904//EN"
 "http://www.w3.org/TR/2001/REC-SVG-20010904/DTD/svg10.dtd">
<svg version="1.0" xmlns="http://www.w3.org/2000/svg"
 width="900.000000pt" height="867.000000pt" viewBox="0 0 900.000000 867.000000"
 preserveAspectRatio="xMidYMid meet">
<metadata>
Created by potrace 1.10, written by Peter Selinger 2001-2011
</metadata>
<g transform="translate(0.000000,867.000000) scale(0.100000,-0.100000)"
fill="#000000" stroke="none">
<path d="M0 4335 l0 -4335 4500 0 4500 0 0 4335 0 4335 -4500 0 -4500 0 0
-4335z m7436 3470 c71 -18 121 -50 167 -107 72 -89 67 36 67 -1865 0 -1819 1
-1753 -46 -1830 -28 -45 -107 -114 -137 -120 -15 -3 -30 -10 -33 -14 -3 -5
-1273 -9 -2913 -9 -2646 0 -2912 1 -2947 16 -74 31 -133 85 -165 150 l-29 62
0 1755 c0 1014 4 1758 9 1761 5 3 12 18 16 33 9 37 61 100 106 128 88 56 -96
53 2996 54 2501 1 2859 -1 2909 -14z m-4144 -6017 c1 -2 4 -81 7 -176 l6 -172
25 23 c44 39 102 59 177 59 78 0 129 -20 175 -69 54 -58 58 -81 58 -378 l0
-273 -51 -4 c-28 -1 -57 1 -65 5 -11 7 -14 51 -14 250 0 233 -1 244 -23 282
-12 22 -34 45 -47 52 -72 36 -172 -4 -212 -84 -21 -45 -23 -63 -28 -273 l-5
-225 -62 -3 -63 -3 0 489 c0 269 3 492 7 495 6 6 111 10 115 5z m-364 -46 c86
-24 102 -40 102 -101 0 -60 -15 -76 -54 -56 -40 21 -137 45 -181 45 -54 0
-151 -27 -194 -54 -95 -61 -142 -149 -149 -283 -8 -158 48 -269 168 -337 51
-29 63 -31 165 -34 106 -3 112 -2 170 27 69 35 75 32 75 -44 0 -61 -4 -67 -55
-91 -34 -16 -63 -19 -190 -19 -147 0 -151 1 -215 31 -132 62 -218 173 -254
326 -20 85 -20 151 0 236 44 183 165 308 344 356 76 20 192 19 268 -2z m2089
-242 c23 -11 44 -24 48 -30 10 -17 23 -11 31 13 4 12 12 25 18 29 19 13 93 9
105 -6 15 -18 16 -955 1 -970 -12 -12 -86 -14 -112 -3 -16 6 -18 23 -18 162 0
85 -2 155 -5 155 -3 0 -24 -12 -47 -27 -36 -24 -54 -28 -130 -31 -115 -5 -170
20 -243 110 -37 45 -54 87 -71 174 -15 75 -15 95 -5 153 16 82 49 156 89 203
34 38 119 85 167 91 50 7 128 -3 172 -23z m-711 2 c63 -28 93 -52 123 -96 49
-74 78 -235 51 -287 -10 -18 -23 -19 -236 -19 -253 0 -252 0 -215 -71 26 -49
34 -57 86 -89 35 -22 51 -25 135 -24 70 0 105 5 133 19 48 23 59 13 55 -51 -3
-43 -7 -50 -38 -68 -50 -30 -254 -31 -320 -1 -112 48 -178 133 -204 261 -15
73 -15 86 -1 163 24 126 82 208 182 257 62 30 190 34 249 6z m1212 6 c9 -9 12
-74 13 -227 0 -256 6 -303 43 -339 23 -24 34 -27 91 -26 77 1 107 18 145 85
24 43 25 51 30 279 l5 235 57 3 c53 3 58 1 63 -20 3 -13 4 -174 3 -358 l-3
-335 -62 -3 c-61 -3 -63 -2 -63 22 0 31 -17 43 -33 24 -35 -42 -70 -53 -173
-53 -95 0 -103 2 -138 28 -20 16 -49 47 -64 70 l-27 40 -3 280 c-2 203 0 282
9 293 14 17 90 19 107 2z m1034 -7 c55 -23 113 -81 141 -140 18 -38 22 -64 22
-151 l0 -105 -230 -5 c-126 -3 -231 -7 -233 -8 -1 -1 0 -14 4 -29 11 -46 46
-92 94 -120 41 -25 54 -27 140 -27 69 0 105 5 129 17 55 28 61 24 61 -41 l0
-59 -42 -19 c-34 -15 -66 -19 -163 -19 -106 0 -126 3 -168 24 -130 64 -197
177 -197 333 0 170 61 282 187 344 63 31 189 34 255 5z"/>
<path d="M1607 7726 c-61 -22 -87 -48 -117 -114 -20 -43 -20 -79 -20 -1777 0
-1676 1 -1735 19 -1777 24 -55 64 -93 121 -112 40 -14 345 -16 2921 -16 3194
0 2930 -6 3003 67 20 20 42 52 48 72 18 52 25 3384 7 3486 -10 61 -17 75 -58
118 -32 33 -58 51 -86 57 -24 6 -1189 9 -2920 9 -2383 0 -2886 -2 -2918 -13z
m5282 -407 c37 -8 62 -22 99 -57 55 -52 72 -80 96 -164 20 -71 20 -115 0 -186
-21 -72 -51 -120 -104 -164 -52 -45 -103 -58 -225 -58 -134 0 -178 13 -234 69
-57 57 -77 94 -97 182 -14 63 -14 75 0 140 29 126 105 215 203 238 54 13 203
13 262 0z m-4041 -62 c18 -19 26 -38 28 -69 2 -24 3 -46 3 -49 1 -4 18 -9 39
-12 20 -3 73 -10 117 -16 190 -26 334 -92 384 -177 56 -95 -10 -242 -120 -268
-28 -6 -70 6 -149 42 -122 56 -257 91 -266 68 -2 -6 -3 -159 -2 -340 3 -280 5
-330 18 -337 8 -5 38 -18 65 -29 66 -28 222 -107 238 -120 6 -6 28 -22 47 -36
88 -63 173 -173 207 -269 41 -112 46 -143 47 -280 1 -141 -10 -205 -51 -305
-60 -145 -166 -258 -310 -329 -34 -17 -68 -31 -75 -31 -7 0 -25 -6 -40 -14
-14 -8 -46 -17 -70 -21 -70 -12 -78 -19 -78 -75 0 -93 -35 -133 -116 -133 -67
0 -97 34 -104 116 l-5 62 -40 3 c-97 6 -232 38 -355 84 -164 61 -320 224 -320
333 0 70 72 178 128 192 43 10 93 -5 139 -44 157 -131 270 -191 390 -208 45
-6 52 -4 56 12 2 10 5 185 6 389 1 287 -2 374 -12 382 -7 6 -39 20 -72 33
-347 127 -498 262 -557 498 -39 158 -19 320 60 480 22 45 127 152 177 182 22
12 42 25 45 28 23 26 220 95 302 106 52 7 58 15 58 85 0 42 4 52 32 75 28 24
39 27 81 22 35 -3 56 -12 75 -30z m3296 -1883 c28 -18 41 -57 27 -83 -6 -10
-29 -26 -51 -35 -36 -14 -147 -16 -1109 -16 -960 0 -1072 2 -1107 16 -22 9
-42 21 -46 28 -14 21 -8 60 14 83 l21 23 1114 0 c990 0 1116 -2 1137 -16z
m943 -458 c95 -8 134 -67 75 -111 -27 -20 -43 -20 -1642 -20 -1560 0 -1616 1
-1642 19 -20 13 -28 27 -28 47 0 38 35 60 108 68 66 7 3051 5 3129 -3z"/>
<path d="M2551 6747 c-72 -26 -139 -83 -167 -143 -26 -54 -24 -164 3 -224 30
-66 97 -123 205 -173 95 -45 88 -67 88 268 l0 295 -32 0 c-18 -1 -62 -11 -97
-23z"/>
<path d="M2865 5680 c-3 -5 -6 -156 -6 -336 0 -346 1 -350 46 -338 84 23 160
82 200 155 25 46 30 68 33 144 7 155 -43 250 -176 340 -69 46 -86 52 -97 35z"/>
<path d="M4835 1384 c-36 -18 -60 -46 -85 -99 -28 -57 -28 -199 0 -259 66
-146 242 -154 318 -13 19 35 22 57 22 142 0 83 -4 107 -21 140 -25 46 -61 83
-96 96 -37 14 -104 11 -138 -7z"/>
<path d="M4110 1381 c-57 -30 -114 -127 -91 -154 7 -9 55 -11 168 -7 l158 5
-2 39 c-3 47 -32 95 -71 119 -40 23 -118 22 -162 -2z"/>
<path d="M6350 1381 c-42 -22 -88 -85 -92 -126 l-3 -30 155 -5 c85 -3 161 -1
168 4 31 22 -7 122 -60 154 -45 28 -120 29 -168 3z"/>
</g>
</svg>
