<?xml version="1.0" standalone="no"?>
<!DOCTYPE svg PUBLIC "-//W3C//DTD SVG 20010904//EN"
 "http://www.w3.org/TR/2001/REC-SVG-20010904/DTD/svg10.dtd">
<svg version="1.0" xmlns="http://www.w3.org/2000/svg"
 width="900.000000pt" height="897.000000pt" viewBox="0 0 900.000000 897.000000"
 preserveAspectRatio="xMidYMid meet">
<metadata>
Created by potrace 1.10, written by Peter Selinger 2001-2011
</metadata>
<g transform="translate(0.000000,897.000000) scale(0.100000,-0.100000)"
fill="#000000" stroke="none">
<path d="M0 4485 l0 -4485 4500 0 4500 0 0 4485 0 4485 -4500 0 -4500 0 0
-4485z m7722 3612 c69 -34 123 -94 132 -145 8 -49 8 -2122 -1 -2190 -11 -95
-96 -158 -245 -182 l-78 -13 0 -778 c0 -427 -3 -784 -6 -793 -6 -15 -271 -16
-2905 -16 -2855 0 -2898 0 -2909 19 -7 13 -10 280 -10 795 l0 776 -22 4 c-13
3 -45 8 -73 11 -107 14 -195 75 -214 150 -14 58 -15 2184 -1 2236 5 19 23 49
40 66 35 35 121 81 165 86 17 2 1389 4 3050 3 l3020 -1 57 -28z m-2756 -6251
c4 -12 -61 -103 -147 -203 -32 -38 -120 -46 -127 -11 -3 16 67 136 118 201 20
24 28 27 86 27 46 0 66 -4 70 -14z m969 -12 c52 -56 17 -135 -60 -137 -52 -1
-90 41 -81 92 11 71 93 97 141 45z m-3527 -58 c148 -55 252 -159 297 -296 24
-74 25 -254 1 -325 -43 -129 -110 -218 -201 -267 -104 -58 -118 -60 -335 -65
-113 -2 -211 0 -218 5 -10 7 -12 110 -12 481 0 260 3 477 6 483 11 18 409 4
462 -16z m3893 -47 c17 -9 19 -19 17 -80 -1 -38 2 -73 8 -79 5 -5 47 -10 94
-12 l85 -3 3 -29 c2 -15 1 -39 -2 -52 -6 -23 -10 -24 -96 -24 -87 0 -90 -1
-90 -22 -3 -133 2 -441 6 -453 10 -25 70 -38 121 -26 55 14 73 3 73 -46 0 -54
-14 -70 -73 -82 -87 -19 -186 9 -227 64 -39 52 -45 86 -50 325 l-5 235 -48 6
c-52 5 -67 19 -67 60 0 35 16 47 70 51 l45 3 3 80 c2 48 8 82 15 87 18 11 95
10 118 -3z m-3079 -164 c95 -20 162 -66 198 -135 47 -94 65 -234 34 -278 -15
-22 -19 -22 -244 -22 -226 0 -259 -5 -231 -33 6 -6 11 -19 11 -28 0 -29 86
-107 128 -116 67 -14 207 -7 240 12 45 27 62 15 62 -44 0 -43 -4 -52 -28 -69
-67 -49 -270 -49 -370 0 -58 28 -123 95 -158 165 -27 53 -29 63 -29 182 1 116
3 130 28 181 49 99 123 160 225 184 31 8 59 15 62 15 3 0 35 -6 72 -14z m816
-1 c81 -24 130 -60 172 -129 38 -62 70 -168 70 -228 0 -19 -7 -70 -16 -113
-38 -186 -174 -298 -341 -281 -57 6 -129 37 -151 65 -24 31 -31 -4 -34 -168
l-3 -165 -48 -3 c-27 -2 -55 2 -63 9 -12 10 -14 89 -14 494 0 266 3 490 6 499
5 12 21 16 65 16 58 0 59 0 59 -28 0 -42 8 -44 49 -12 38 30 116 58 164 59 16
1 54 -6 85 -15z m797 -6 c87 -25 157 -87 202 -178 26 -52 28 -63 27 -190 0
-152 -10 -187 -80 -268 -66 -78 -145 -112 -259 -112 -173 0 -291 93 -338 267
-21 77 -21 134 -2 211 22 83 48 134 97 185 52 53 74 67 153 89 63 18 127 16
200 -4z m2213 5 c171 -42 262 -168 262 -365 0 -122 -20 -190 -77 -263 -69 -88
-151 -126 -268 -126 -159 0 -267 77 -330 235 -21 54 -20 221 2 289 35 111 126
199 236 229 80 21 95 21 175 1z m-1473 -6 c50 -12 50 -12 55 -57 10 -85 1 -92
-86 -65 -67 20 -117 19 -164 -5 -42 -21 -55 -47 -44 -82 10 -35 31 -50 144
-105 106 -52 165 -98 181 -141 5 -13 9 -52 9 -86 0 -54 -4 -69 -29 -103 -42
-58 -78 -80 -155 -94 -54 -10 -85 -10 -153 0 -118 17 -133 28 -133 102 0 55 2
59 23 59 13 0 27 -4 33 -9 26 -27 165 -47 207 -30 52 20 67 38 67 80 0 45 -20
63 -118 109 -119 56 -133 64 -167 98 -60 60 -68 172 -18 249 20 30 78 68 124
82 46 13 163 12 224 -2z m363 -361 c2 -281 -1 -361 -10 -368 -7 -4 -30 -8 -50
-8 -73 0 -68 -28 -68 377 l0 364 63 -3 62 -3 3 -359z"/>
<path d="M1615 8051 c-60 -11 -109 -35 -133 -66 l-22 -28 0 -1107 0 -1107 23
-25 c31 -35 85 -57 156 -65 l61 -6 -2 399 -3 399 -52 1 c-91 2 -83 -49 -83
513 l0 499 23 6 c12 3 1370 6 3017 6 2317 0 2999 -3 3008 -12 9 -9 12 -134 12
-499 0 -431 -2 -489 -16 -503 -8 -9 -20 -14 -25 -10 -5 3 -18 2 -29 -1 -20 -6
-20 -14 -18 -398 l3 -392 65 3 c69 2 132 28 162 65 16 21 18 95 18 1125 l0
1104 -21 30 c-12 16 -42 40 -68 51 l-46 22 -2995 1 c-1647 1 -3013 -2 -3035
-5z"/>
<path d="M1918 6972 c-45 -12 -80 -47 -82 -85 -1 -4 1232 -7 2739 -7 1795 0
2752 -3 2775 -10 22 -6 38 -6 44 0 15 15 -4 60 -35 82 -24 18 -91 19 -2727 21
-1486 1 -2708 1 -2714 -1z"/>
<path d="M4596 6692 c-1960 -1 -2683 -5 -2692 -13 -12 -10 -14 -224 -14 -1260
l0 -1249 2715 -2 c1493 -2 2720 -1 2725 0 12 4 14 2508 3 2515 -5 2 -19 6 -33
8 -14 2 -1231 3 -2704 1z m241 -301 c197 -48 319 -117 464 -261 212 -210 305
-469 278 -778 -12 -133 -26 -182 -95 -327 -91 -190 -237 -336 -439 -437 -275
-139 -590 -136 -872 9 -129 65 -249 168 -338 288 -114 153 -185 370 -185 562
0 89 20 232 40 278 4 11 16 43 25 70 60 169 199 347 351 447 123 81 178 106
339 152 80 22 335 21 432 -3z"/>
<path d="M4469 6336 c-3 -3 -30 -10 -60 -16 -30 -5 -63 -14 -74 -19 -11 -4
-45 -19 -75 -32 -51 -22 -148 -76 -160 -88 -3 -4 -27 -24 -55 -46 -114 -91
-214 -230 -260 -360 -9 -27 -21 -59 -26 -70 -31 -71 -43 -292 -22 -410 41
-228 182 -450 364 -570 77 -52 196 -115 216 -115 7 0 21 -4 31 -10 33 -18 179
-40 267 -40 89 0 262 26 280 41 5 5 16 9 25 9 20 0 138 61 206 106 117 77 244
228 304 359 42 91 46 104 72 230 21 103 -2 362 -41 450 -4 11 -19 45 -32 75
-54 122 -160 252 -279 340 -65 48 -204 120 -232 120 -7 0 -18 4 -24 9 -19 18
-134 34 -274 38 -80 2 -148 2 -151 -1z m221 -309 c18 -30 27 -35 106 -52 69
-15 94 -26 120 -51 42 -39 45 -79 8 -123 -30 -36 -49 -38 -109 -11 -24 11 -58
21 -77 22 l-33 3 -3 -146 -3 -147 74 -36 c84 -41 149 -101 180 -166 18 -37 22
-63 22 -145 -1 -92 -3 -105 -30 -153 -35 -65 -114 -138 -158 -147 -47 -11 -87
-33 -87 -51 0 -30 -32 -64 -60 -64 -31 0 -48 16 -59 57 -6 23 -13 28 -42 31
-93 7 -192 53 -246 115 -43 49 -47 69 -24 115 34 67 67 69 148 8 32 -25 72
-48 88 -52 17 -4 35 -11 42 -16 28 -22 33 6 33 178 0 157 -2 175 -17 180 -10
4 -50 22 -90 40 -91 44 -155 112 -177 188 -20 68 -20 94 0 164 29 101 105 169
223 202 47 13 56 19 62 44 10 35 24 46 62 46 21 0 32 -8 47 -33z"/>
<path d="M4520 5804 c-25 -7 -60 -68 -60 -103 0 -44 31 -93 73 -116 61 -33 68
-21 65 107 l-3 113 -30 2 c-16 0 -37 -1 -45 -3z"/>
<path d="M4689 5318 c-4 -8 -5 -265 -1 -275 6 -19 43 -15 68 5 52 44 68 125
38 185 -25 49 -95 105 -105 85z"/>
<path d="M2084 1658 c-10 -16 -13 -683 -3 -699 5 -8 49 -10 140 -7 112 4 141
9 177 27 61 31 118 92 149 159 23 50 26 71 27 167 1 99 -2 115 -26 167 -32 70
-103 142 -166 170 -59 27 -284 39 -298 16z"/>
<path d="M3090 1433 c-19 -8 -45 -26 -58 -41 -29 -31 -65 -111 -58 -129 4 -10
42 -13 168 -13 90 0 168 4 175 8 8 5 9 21 2 57 -20 105 -129 162 -229 118z"/>
<path d="M3860 1422 c-46 -23 -59 -36 -82 -82 -24 -47 -28 -67 -28 -140 0
-102 20 -162 68 -207 93 -88 226 -61 287 57 27 53 33 197 10 258 -30 81 -105
142 -174 142 -14 0 -51 -13 -81 -28z"/>
<path d="M4650 1433 c-41 -18 -84 -63 -108 -113 -13 -26 -17 -62 -17 -135 0
-93 2 -103 29 -145 64 -101 151 -133 249 -91 108 47 158 205 112 353 -22 68
-52 103 -112 129 -53 22 -105 23 -153 2z"/>
<path d="M6880 1427 c-84 -41 -129 -147 -117 -275 7 -73 28 -121 70 -163 50
-50 136 -74 185 -51 63 32 80 44 105 81 61 88 60 273 0 350 -36 45 -105 80
-158 80 -22 0 -60 -10 -85 -22z"/>
</g>
</svg>
