<svg xmlns="http://www.w3.org/2000/svg" width="987.339" height="166.584" viewBox="0 0 987.339 166.584">
  <g id="Group_2" data-name="Group 2" transform="translate(-8.965 -1272.197)">
    <g id="Group_130" data-name="Group 130">
      <path id="Path_111" data-name="Path 111" d="M128.045,1329.5v-47.545a9.776,9.776,0,0,0-9.762-9.729H90.69a9.652,9.652,0,0,0-6.041,2.161,9.737,9.737,0,0,0-6.129-2.192H50.969a9.8,9.8,0,0,0-9.788,9.76v74.811l-31.093,66.123-.117.345a5.871,5.871,0,0,0-.489,1.063l-.107.433a11.229,11.229,0,0,0,1.773,9.717,10.834,10.834,0,0,0,8.769,4.289l27.133-.218c10.254-.073,19.166-.131,27.015-.131,8.6,0,15.175.072,20.62.232,1.173.012,2.307.027,3.3,0l.248.012c1.2.1,2.47.148,3.787.148a52.063,52.063,0,0,0,21.362-4.81c21.008-9.2,36.854-32.387,36.854-53.922A55.821,55.821,0,0,0,128.045,1329.5Z" fill="#fff"/>
      <g id="Group_127" data-name="Group 127">
        <path id="Path_112" data-name="Path 112" d="M121.254,1334.2v-53.83a2.169,2.169,0,0,0-2.156-2.191H90.9a2.181,2.181,0,0,0-2.19,2.191v77.635l.177.353,35.9,67.334a49.214,49.214,0,0,0-3.536-91.492" fill="#00afaa"/>
      </g>
      <g id="Group_128" data-name="Group 128">
        <path id="Path_113" data-name="Path 113" d="M105.839,1430.236h-1.816a48.9,48.9,0,0,1-41.838-22.984c-.639-.889-1.1-1.793-1.772-2.906l-10.536,22.683-.394.834a6.889,6.889,0,0,0-.241,1.2,3.438,3.438,0,0,0,3.428,3.4h54.475Z" fill="#e31d93"/>
      </g>
      <g id="Group_129" data-name="Group 129">
        <path id="Path_114" data-name="Path 114" d="M78.422,1278.137H50.227a2.2,2.2,0,0,0-2.19,2.179h0v78.252L15.6,1427.623l-.32.6v.1a3.559,3.559,0,0,0-.286,1.1,3.437,3.437,0,0,0,3.47,3.408H34.527s-4.673,0-3.754-3.682l34.311-70.586v-33.211a3.559,3.559,0,0,1,4.1-3.449H80.58v-41.592h0a2.17,2.17,0,0,0-2.158-2.179" fill="#e31d93"/>
      </g>
    </g>
    <g id="Group_163" data-name="Group 163">
      <g id="Group_131" data-name="Group 131">
        <path id="Path_115" data-name="Path 115" d="M985.713,1358.5a10.55,10.55,0,1,1,10.588-10.283A10.564,10.564,0,0,1,985.713,1358.5Zm8.824-10.558a8.8,8.8,0,1,0-8.792,8.8A8.779,8.779,0,0,0,994.537,1347.938Z" fill="#1d1d1b" fill-rule="evenodd"/>
        <path id="Path_116" data-name="Path 116" d="M988.706,1348.195a2.812,2.812,0,0,1,1.171,2.305,11.668,11.668,0,0,0,.126,1.389,11.134,11.134,0,0,0,.347,1.33h-.191c-.708,0-1.39,0-2.1.027a.353.353,0,0,1-.4-.34c-.065-.586-.159-1.17-.248-1.722a6.306,6.306,0,0,0-.19-1.116.956.956,0,0,0-.8-.773c-.865-.029-1.764,0-2.656,0v3.924h-2.595v-10.563h5.683a3.043,3.043,0,0,1,1.979,5.455C988.8,1348.123,988.769,1348.174,988.706,1348.195Zm-4.937-3.441c0,.809,0,1.549.034,2.318a.226.226,0,0,0,.212.186c.712.031,1.451.031,2.259,0a1.071,1.071,0,0,0,1.14-1.2c0-.827-.312-1.268-1.09-1.3C985.466,1344.728,984.661,1344.754,983.769,1344.754Z" fill="#1d1d1b" fill-rule="evenodd"/>
        <path id="Path_117" data-name="Path 117" d="M988.706,1348.195a2.812,2.812,0,0,1,1.171,2.305,11.668,11.668,0,0,0,.126,1.389,11.134,11.134,0,0,0,.347,1.33h-.191c-.708,0-1.39,0-2.1.027a.353.353,0,0,1-.4-.34c-.065-.586-.159-1.17-.248-1.722a6.306,6.306,0,0,0-.19-1.116.956.956,0,0,0-.8-.773c-.865-.029-1.764,0-2.656,0v3.924h-2.595v-10.563h5.683a3.043,3.043,0,0,1,1.979,5.455C988.8,1348.123,988.769,1348.174,988.706,1348.195Zm-4.937-3.441c0,.809,0,1.549.034,2.318a.226.226,0,0,0,.212.186c.712.031,1.451.031,2.259,0a1.071,1.071,0,0,0,1.14-1.2c0-.827-.312-1.268-1.09-1.3C985.466,1344.728,984.661,1344.754,983.769,1344.754Z" fill="#1d1d1b" fill-rule="evenodd"/>
      </g>
      <g id="Group_152" data-name="Group 152">
        <g id="Group_150" data-name="Group 150">
          <g id="Group_132" data-name="Group 132">
            <path id="Path_118" data-name="Path 118" d="M287.66,1431.361v-32.6h4.825v28.373h13.752v4.223Z" fill="#e31d93"/>
          </g>
          <g id="Group_133" data-name="Group 133">
            <path id="Path_119" data-name="Path 119" d="M328.519,1411.051h0c-.443-1.09-.926-2.639-1.326-4h-.127a24.879,24.879,0,0,1-1.322,4l-3.094,7.963h8.923Zm8.088,20.31-3.382-8.455h-12.19l-3.371,8.455h-4.706l13.394-33.041h1.724l13.355,33.041Z" fill="#e31d93"/>
          </g>
          <g id="Group_134" data-name="Group 134">
            <path id="Path_120" data-name="Path 120" d="M359.73,1415.756h-4.463v11.42h4.463c3.3,0,6.388-1.727,6.388-5.735,0-3.876-3.09-5.685-6.388-5.685m-1.208-12.811h-3.255v8.586h3.255c2.535,0,4.784-1.207,4.784-4.244C363.306,1404.234,361.057,1402.945,358.522,1402.945Zm2.177,28.416h-10.18v-32.595h8.812c4.142,0,8.766,2.793,8.766,8.521,0,2.393-1.09,4.887-2.9,5.7a9.066,9.066,0,0,1,5.827,8.457C371.023,1428.2,365.562,1431.361,360.7,1431.361Z" fill="#e31d93"/>
          </g>
          <g id="Group_135" data-name="Group 135">
            <path id="Path_121" data-name="Path 121" d="M396.485,1402.381h0c-5.825,0-11.779,4.543-11.779,12.613s5.954,12.709,11.779,12.709c5.721,0,11.793-4.625,11.793-12.709s-6.072-12.613-11.793-12.613m0,29.582a16.947,16.947,0,1,1,16.614-16.969A16.525,16.525,0,0,1,396.485,1431.963Z" fill="#e31d93"/>
          </g>
          <g id="Group_136" data-name="Group 136">
            <path id="Path_122" data-name="Path 122" d="M432.29,1402.945H427.9v9.922h4.386c2.808,0,5.421-1.519,5.421-4.951,0-3.408-2.613-4.971-5.421-4.971m9.975,28.416-9.944-14.316H427.9v14.316h-4.71v-32.595h9.889c4.472,0,9.463,2.957,9.463,9.15a8.647,8.647,0,0,1-5.432,8.359l10.693,15.086Z" fill="#e31d93"/>
          </g>
          <g id="Group_137" data-name="Group 137">
            <path id="Path_123" data-name="Path 123" d="M468.762,1411.051h0c-.444-1.09-.922-2.639-1.369-4h-.075a31.822,31.822,0,0,1-1.327,4l-3.1,7.963h8.97Zm8.086,20.31-3.339-8.455H461.286l-3.46,8.455H453.2l13.356-33.041h1.763l13.346,33.041Z" fill="#e31d93"/>
          </g>
          <g id="Group_138" data-name="Group 138">
            <path id="Path_124" data-name="Path 124" d="M499.006,1402.99v28.371h-4.789V1402.99H484.128v-4.225h24.931v4.225Z" fill="#e31d93"/>
          </g>
          <g id="Group_139" data-name="Group 139">
            <path id="Path_125" data-name="Path 125" d="M531.3,1402.381h0c-5.831,0-11.827,4.543-11.827,12.613s6,12.709,11.827,12.709c5.669,0,11.775-4.625,11.775-12.709s-6.106-12.613-11.775-12.613m0,29.582a16.947,16.947,0,1,1,16.613-16.969A16.52,16.52,0,0,1,531.3,1431.963Z" fill="#e31d93"/>
          </g>
          <g id="Group_140" data-name="Group 140">
            <path id="Path_126" data-name="Path 126" d="M567.057,1402.945h-4.385v9.922h4.385c2.854,0,5.469-1.519,5.469-4.951,0-3.408-2.615-4.971-5.469-4.971m9.975,28.416-9.893-14.316h-4.467v14.316H558.01v-32.595h9.936c4.38,0,9.405,2.957,9.405,9.15a8.652,8.652,0,0,1-5.509,8.359l10.739,15.086Z" fill="#e31d93"/>
          </g>
          <g id="Group_141" data-name="Group 141">
            <rect id="Rectangle_7" data-name="Rectangle 7" width="4.783" height="32.596" transform="translate(590.907 1398.766)" fill="#e31d93"/>
          </g>
          <g id="Group_142" data-name="Group 142">
            <path id="Path_127" data-name="Path 127" d="M623.155,1402.381h0c-5.826,0-11.777,4.543-11.777,12.613s5.951,12.709,11.777,12.709c5.673,0,11.79-4.625,11.79-12.709s-6.117-12.613-11.79-12.613m0,29.582a16.947,16.947,0,1,1,16.614-16.969A16.527,16.527,0,0,1,623.155,1431.963Z" fill="#e31d93"/>
          </g>
          <g id="Group_143" data-name="Group 143">
            <path id="Path_128" data-name="Path 128" d="M690.2,1404.508a15.787,15.787,0,0,0-7.874-2.127c-6.153,0-12.666,4.129-12.666,12.717,0,8.379,6.35,12.6,12.666,12.6a16.806,16.806,0,0,0,8.645-2.031l-.966,4.763c-1.97,1.09-4.184,1.528-8.2,1.528-7.963,0-16.933-5.719-16.933-16.865,0-11.323,9.09-17.022,16.933-17.022a18.255,18.255,0,0,1,9.215,2.16Z" fill="#e31d93"/>
          </g>
          <g id="Group_144" data-name="Group 144">
            <path id="Path_129" data-name="Path 129" d="M700.544,1431.361v-32.6h4.786v28.373h13.791v4.223Z" fill="#e31d93"/>
          </g>
          <g id="Group_145" data-name="Group 145">
            <path id="Path_130" data-name="Path 130" d="M728.212,1431.361h0v-28.552H733v28.552Zm.481-32.463-2.449-2.49a24.7,24.7,0,0,0,9.768-5.386l.922,4.222A24.169,24.169,0,0,1,728.693,1398.9Z" fill="#e31d93"/>
          </g>
          <g id="Group_146" data-name="Group 146">
            <path id="Path_131" data-name="Path 131" d="M771.728,1432.127,757.046,1415.4c-2.372-2.676-5.069-5.915-7.231-8.649l-.085.063c.085,2.99.085,5.732.085,8.185v16.367h-4.753v-32.595h3.3l13.48,15.341c1.809,2.1,4.62,5.356,6.588,7.807l.127-.039c-.127-2.5-.127-5.315-.127-7.7v-15.406h4.79v33.361Z" fill="#e31d93"/>
          </g>
          <g id="Group_147" data-name="Group 147">
            <rect id="Rectangle_8" data-name="Rectangle 8" width="4.791" height="32.596" transform="translate(785.2 1398.766)" fill="#e31d93"/>
          </g>
          <g id="Group_148" data-name="Group 148">
            <path id="Path_132" data-name="Path 132" d="M826.188,1404.508a15.853,15.853,0,0,0-7.892-2.127c-6.143,0-12.618,4.129-12.618,12.717,0,8.379,6.309,12.6,12.618,12.6a16.851,16.851,0,0,0,8.656-2.031l-1.008,4.763c-1.93,1.09-4.175,1.528-8.164,1.528-7.963,0-16.937-5.719-16.937-16.865,0-11.323,9.095-17.022,16.937-17.022a18.33,18.33,0,0,1,9.2,2.16Z" fill="#e31d93"/>
          </g>
          <g id="Group_149" data-name="Group 149">
            <path id="Path_133" data-name="Path 133" d="M851.157,1402.381h0c-5.79,0-11.774,4.543-11.774,12.613s5.984,12.709,11.774,12.709c5.716,0,11.79-4.625,11.79-12.709s-6.074-12.613-11.79-12.613m0,29.582a16.947,16.947,0,1,1,16.616-16.969A16.5,16.5,0,0,1,851.157,1431.963Z" fill="#e31d93"/>
          </g>
        </g>
        <g id="Group_151" data-name="Group 151">
          <path id="Path_134" data-name="Path 134" d="M190,1376.59a1.989,1.989,0,0,0,2.013,1.99H963.454a1.991,1.991,0,0,0,0-3.982H192.011A1.984,1.984,0,0,0,190,1376.59" fill="#e31d93"/>
        </g>
      </g>
      <g id="Group_162" data-name="Group 162">
        <g id="Group_160" data-name="Group 160">
          <path id="Path_135" data-name="Path 135" d="M387.453,1354.639c0,2.068-.464,3.349-1.391,3.892-.649.354-2.131.494-4.569.494-18.556,0-24.3-4.1-24.3-23.033v-58.484c0-1.885.217-3.07.712-3.549.466-.467,1.67-.723,3.646-.723h5.4c1.942,0,3.146.229,3.578.631.432.436.62,1.664.62,3.641v64.254c0,4.474,8.215,4.08,11.736,4.08,2.065,0,3.362.217,3.882.631.433.443.684,1.65.684,3.629Z" fill="#1d1d1b"/>
          <path id="Path_136" data-name="Path 136" d="M247.058,1316.162h0c0-19.6-10.316-29.992-28.285-29.992H204.326v60.039h14.2c9.418,0,16.151-2.227,20.038-6.7a34.242,34.242,0,0,0,8.494-23.346m15.559-.889c0,15.159-5.464,26.209-13.679,34.235a30.956,30.956,0,0,1-12.965,7.847,56.607,56.607,0,0,1-15.282,1.67H193.148c-1.974,0-3.211-.216-3.709-.683-.432-.494-.671-1.635-.671-3.52v-77.236c0-1.9.239-3.07.671-3.564.5-.432,1.735-.682,3.709-.682h26.49c13.309,0,23.532,3.553,30.785,10.672C257.647,1291.125,262.617,1301.932,262.617,1315.273Z" fill="#1d1d1b"/>
          <path id="Path_137" data-name="Path 137" d="M326.966,1319.1h0a21.368,21.368,0,0,0-4.819-12.247,15.469,15.469,0,0,0-11.977-5.066c-10,0-15.784,5.791-17.3,17.313Zm14.387,5.861c0,1.609-.341,2.6-1.018,2.994a7.729,7.729,0,0,1-3.644.592H292.875q.8,20,17.855,19.973c3.977,0,7.094-.739,9.381-2.219,2.259-1.453,4.233-3.955,5.894-7.488.529-1.071,1.913-1.608,4.107-1.608h4.943q4.541,0,4.537,2.639c0,1.33-1.294,3.842-3.857,7.474-5.623,7.817-13.894,11.705-25,11.705q-14.784,0-23.506-9.173-8.745-9.191-8.738-23.977c0-9.834,2.908-18.078,8.738-24.658,5.808-6.606,13.528-9.9,23.256-9.9q14.173,0,22.752,9.82C338.605,1307.365,341.353,1315.3,341.353,1324.963Z" fill="#1d1d1b"/>
          <path id="Path_138" data-name="Path 138" d="M417.185,1354.822c0,1.885-.245,3.026-.711,3.52-.461.467-1.633.683-3.487.683h-5.34c-1.948,0-3.151-.216-3.609-.683-.472-.494-.717-1.635-.717-3.52V1295.17c0-1.887.245-3.072.717-3.522.458-.472,1.661-.675,3.609-.675h5.34c1.951,0,3.151.2,3.549.621.467.443.649,1.633.649,3.576Z" fill="#1d1d1b"/>
          <path id="Path_139" data-name="Path 139" d="M484,1325.15h0c0-6.453-1.357-11.634-4.138-15.683-3.084-4.754-7.752-7.106-13.862-7.106-6.237,0-10.964,2.352-14.142,7.106-2.782,4.09-4.138,9.412-4.138,15.963,0,6.326,1.328,11.5,4.016,15.437,3.208,4.647,7.747,6.977,13.736,6.977q9.313,0,14.27-6.856c2.842-3.978,4.258-9.291,4.258-15.838m13.989,29.469c0,1.946-.253,3.186-.712,3.7-.52.493-1.7.709-3.615.709h-5.433c-2.036,0-3.334-.216-3.831-.668-.521-.433-.8-1.65-.8-3.738v-5.984q-7.5,10.392-21.4,10.39c-9.636,0-17.043-3.4-22.2-10.128q-6.946-9.082-6.946-23.87c0-9.943,2.468-18,7.475-24.142q8.106-9.732,22.812-9.731,14.357,0,21.057,10.284v-5.866c0-1.974.254-3.177.709-3.674.494-.494,1.763-.744,3.83-.744h4.666c2.039,0,3.308.213,3.734.694.461.453.652,1.648.652,3.724Z" fill="#1d1d1b"/>
          <g id="Group_153" data-name="Group 153">
            <path id="Path_140" data-name="Path 140" d="M579.657,1333.367h0c.064-6.795-5.063-10.875-11.178-12.387-2.282-.617-6.326-.908-12.2-.908h-19.6V1346.8h21c9.691,0,21.981.187,21.981-13.43m-6.081-35.7h0c0-5.682-2.321-9.2-6.948-10.654-1.886-.582-5.374-.862-10.523-.862H536.679v23.217h18.894c4.907,0,8.554-.365,10.9-1.158C571.229,1306.719,573.576,1303.2,573.576,1297.67Zm21.3,36.406c0,26.459-21.455,24.949-31.889,24.949H525.312c-1.943,0-3.146-.248-3.641-.709-.466-.468-.68-1.642-.68-3.494v-76.728c0-1.866.214-3.028.68-3.489.495-.494,1.7-.738,3.641-.738h33.075c6.632,0,11.79.524,15.468,1.539a21.466,21.466,0,0,1,12.106,8.94,20.007,20.007,0,0,1,3.055,10.574c0,8.8-4.108,14.867-12.385,18.264C587.443,1316.162,594.878,1323.084,594.878,1334.076Z" fill="#1d1d1b"/>
          </g>
          <g id="Group_154" data-name="Group 154">
            <path id="Path_141" data-name="Path 141" d="M651.723,1327.484h0c0-5.98-1.3-10.851-3.857-14.576-2.935-4.43-7.2-6.652-12.907-6.652-5.8,0-10.218,2.222-13.188,6.652-2.559,3.815-3.859,8.756-3.859,14.867,0,5.872,1.268,10.665,3.737,14.342,2.967,4.336,7.253,6.467,12.814,6.467,5.771,0,10.223-2.111,13.278-6.33,2.623-3.764,3.982-8.67,3.982-14.77m13.028,27.436c0,1.816-.251,2.928-.706,3.422-.433.435-1.572.65-3.368.65h-5.062c-1.888,0-3.058-.183-3.551-.59s-.742-1.57-.742-3.482v-5.592q-6.951,9.677-19.913,9.7-13.435,0-20.662-9.431c-4.323-5.641-6.451-13.034-6.451-22.209,0-9.272,2.29-16.774,6.945-22.477,5.035-6.033,12.135-9.056,21.212-9.056,8.959,0,15.476,3.16,19.611,9.57l.125-5.436c0-1.789.18-2.951.647-3.381.432-.476,1.635-.7,3.55-.7h4.32c1.92,0,3.086.188,3.492.623.4.416.615,1.573.615,3.457Z" fill="#1d1d1b"/>
          </g>
          <g id="Group_155" data-name="Group 155">
            <path id="Path_142" data-name="Path 142" d="M712.209,1304.555c0,2.81-.952,4.17-2.9,4.107h-3.488a13.161,13.161,0,0,0-7.935,2.547,17.622,17.622,0,0,0-5.806,6.348c-1.539,3.209-2.347,8.47-2.347,15.713v21.675c0,1.791-.213,2.953-.677,3.4-.464.467-1.61.683-3.493.683H680.5c-1.886,0-3.058-.216-3.49-.683-.467-.444-.677-1.606-.677-3.4V1300.2c0-1.824.21-2.93.677-3.4.432-.459,1.638-.676,3.555-.676h4.318c1.884,0,3.089.217,3.491.629s.617,1.557.617,3.445v9.076q7.083-13.154,19.486-13.15c1.6,0,2.564.271,3.053.816.466.543.679,1.61.679,3.258Z" fill="#1d1d1b"/>
          </g>
          <g id="Group_156" data-name="Group 156">
            <path id="Path_143" data-name="Path 143" d="M758.682,1304.555c0,2.81-.959,4.17-2.876,4.107h-3.488a12.974,12.974,0,0,0-7.935,2.547,17.053,17.053,0,0,0-5.809,6.348c-1.573,3.209-2.372,8.47-2.372,15.713v21.675c0,1.791-.251,2.953-.677,3.4-.435.467-1.613.683-3.527.683H727c-1.914,0-3.06-.216-3.553-.683-.432-.444-.682-1.606-.682-3.4V1300.2c0-1.824.282-2.93.709-3.4.466-.459,1.637-.676,3.526-.676h4.349c1.886,0,3.055.217,3.457.629.435.418.651,1.557.651,3.445v9.076q7.09-13.154,19.481-13.15c1.574,0,2.625.271,3.06.816a5.548,5.548,0,0,1,.681,3.258Z" fill="#1d1d1b"/>
          </g>
          <g id="Group_157" data-name="Group 157">
            <path id="Path_144" data-name="Path 144" d="M817.191,1327.484h0c0-5.98-1.295-10.851-3.832-14.576-2.926-4.43-7.221-6.652-12.936-6.652q-8.661,0-13.15,6.652c-2.563,3.815-3.865,8.756-3.865,14.867,0,5.872,1.266,10.665,3.772,14.342,2.958,4.336,7.193,6.467,12.745,6.467,5.778,0,10.228-2.111,13.284-6.33,2.653-3.764,3.982-8.67,3.982-14.77m13.027,27.436c0,1.816-.213,2.928-.683,3.422-.457.435-1.538.65-3.392.65H821.11c-1.88,0-3.083-.183-3.55-.59-.495-.414-.776-1.57-.776-3.482v-5.592c-4.628,6.451-11.232,9.7-19.88,9.7q-13.438,0-20.624-9.431-6.485-8.461-6.488-22.209,0-13.908,6.949-22.477,7.546-9.049,21.213-9.056c8.92,0,15.5,3.16,19.606,9.57V1300.2c0-1.824.217-2.93.709-3.4.429-.459,1.607-.676,3.488-.676h4.386c1.854,0,3.057.217,3.46.629s.615,1.557.615,3.445Z" fill="#1d1d1b"/>
          </g>
          <g id="Group_158" data-name="Group 158">
            <path id="Path_145" data-name="Path 145" d="M895.147,1354.92c0,1.912-.244,3.068-.736,3.482-.47.407-1.667.623-3.585.623H845.438c-1.879,0-3.054-.248-3.578-.683-.528-.494-.807-1.635-.807-3.485v-3.587a5.19,5.19,0,0,1,1.115-3.676l.776-.848s32.045-37.711,35.1-40.256h-6.082l-26.8.039c-1.818,0-2.936-.214-3.394-.646-.466-.461-.716-1.608-.716-3.461v-2.359c0-1.866.25-2.977.716-3.444s1.576-.713,3.394-.713l45.663-.027c1.887,0,3.093.215,3.523.686.465.47.684,1.611.684,3.449v2.658a5.28,5.28,0,0,1-1.029,3.643,2.616,2.616,0,0,1-.768.9s-32.076,37.977-35.291,41.156h32.881c1.918,0,3.115.217,3.585.621.492.442.736,1.61.736,3.522Z" fill="#1d1d1b"/>
          </g>
          <g id="Group_159" data-name="Group 159">
            <path id="Path_146" data-name="Path 146" d="M953.6,1327.484h0c0-5.98-1.268-10.851-3.8-14.576-2.927-4.43-7.228-6.652-12.936-6.652q-8.706,0-13.153,6.652c-2.563,3.815-3.858,8.756-3.858,14.867,0,5.872,1.23,10.665,3.742,14.342,2.958,4.336,7.219,6.467,12.782,6.467q8.7,0,13.269-6.33c2.631-3.764,3.956-8.67,3.956-14.77m13.063,26.076c0,1.815-.248,4.288-.686,4.782-.459.435-1.571.65-3.359.65h-5.066c-1.909,0-3.061-.183-3.556-.59s-.765-2.935-.765-4.842v-4.232q-6.958,9.677-19.884,9.7c-8.955,0-15.878-3.152-20.658-9.431q-6.531-8.461-6.512-22.209c0-9.272,2.346-16.774,6.97-22.477,5.073-6.033,12.172-9.056,21.245-9.056,8.927,0,15.471,3.16,19.6,9.57v-5.436c0-1.789.228-2.951.683-3.381.463-.476,1.632-.7,3.524-.7h4.381c1.883,0,3.026.188,3.453.623.406.416.626,1.573.626,3.457Z" fill="#1d1d1b"/>
          </g>
        </g>
        <g id="Group_161" data-name="Group 161">
          <path id="Path_147" data-name="Path 147" d="M417.185,1281.984c0,1.914-.245,3.055-.711,3.538-.461.458-1.633.7-3.487.7h-5.34c-1.948,0-3.151-.241-3.609-.7-.472-.483-.717-1.624-.717-3.538V1277.5c0-1.9.245-3.058.717-3.537s1.661-.723,3.609-.723h5.34c1.951,0,3.151.229,3.549.661.467.445.649,1.634.649,3.6Z" fill="#1d1d1b"/>
        </g>
      </g>
    </g>
  </g>
</svg>
