<svg xmlns="http://www.w3.org/2000/svg" xmlns:xlink="http://www.w3.org/1999/xlink" width="440" height="436" viewBox="0 0 440 436">
  <defs>
    <filter id="Ellipse_1" x="0" y="0" width="440" height="436" filterUnits="userSpaceOnUse">
      <feOffset input="SourceAlpha"/>
      <feGaussianBlur stdDeviation="6" result="blur"/>
      <feFlood flood-opacity="0.384"/>
      <feComposite operator="in" in2="blur"/>
      <feComposite in="SourceGraphic"/>
    </filter>
  </defs>
  <g id="Group_438" data-name="Group 438" transform="translate(950.957 -576.223)">
    <g transform="matrix(1, 0, 0, 1, -950.96, 576.22)" filter="url(#Ellipse_1)">
      <ellipse id="Ellipse_1-2" data-name="Ellipse 1" cx="202" cy="200" rx="202" ry="200" transform="translate(18 18)" fill="#fff"/>
    </g>
    <path id="Path_402" data-name="Path 402" d="M-757.32,946.882c6.942,0,26.237-.377,32.39,0,2.329.385,6.968,0,9.646,0,1.165,0,1.549.385,2.7.385,9.658,0,15.053.776,24.689-.385a155.659,155.659,0,0,0,20.436-5.009c3.88-1.527,9.275-3.862,13.131-5.8a127.684,127.684,0,0,0,19.294-12.725,150.916,150.916,0,0,0,21.6-22.751l5.01-7.724a23.665,23.665,0,0,0,2.7-3.847,118.13,118.13,0,0,0,13.49-37.435c0-2.309.4-3.851.4-5.775l.384-6.156h0l-.384-11.967c-.77-3.862-1.165-7.339-1.947-10.8-1.922-9.262-3.855-13.511-6.932-21.6a105.132,105.132,0,0,0-10.812-18.123,74.4,74.4,0,0,0-8.866-10.436l-9.635-8.87c-8.494-6.932-11.2-8.1-19.679-12.729V660.273c-.768-3.465-.385-3.083-1.538-6.566-1.56-4.986-4.636-8.091-8.494-10.789-2.306-1.157-6.548-2.7-9.251-2.7H-721.05c-3.88,0-6.956,1.538-10.033,3.466-3.855-2.7-7.328-3.466-13.516-3.466h-45.893c-8.491,0-16.193,3.466-19.69,11.178-2.306,4.247-1.933,7.334-1.933,13.5v130c-.373,1.166-.756,1.549-1.143,2.708l-2.7,5.39c-.388,1.157-.771,1.545-1.143,2.695-2.715,5.413-5.78,13.122-8.89,18.539-3.076,6.54-6.931,15.028-10.019,21.587l-16.2,34.32c-3.869,8.116-8.492,18.911-12.338,27.007l-2.7,5.028c-3.866,7.713-5.031,13.888-1.944,21.978a26.577,26.577,0,0,0,6.956,8.873,21.9,21.9,0,0,0,11.569,4.241c5.009.389,10.019,0,15.425,0h15.426c5.408,0,10.033-.385,15.449-.385h47.048Z" fill="#fff" fill-rule="evenodd"/>
    <path id="Path_403" data-name="Path 403" d="M-664.743,755.175V657.19a3.854,3.854,0,0,0-3.854-3.843h-51.312a4.155,4.155,0,0,0-3.866,3.843v141.2l.405.762,65.189,122.284a89.756,89.756,0,0,0,53.63-82.17,88.821,88.821,0,0,0-60.192-84.086Z" fill="#00afaa" fill-rule="evenodd"/>
    <path id="Path_404" data-name="Path 404" d="M-692.518,929.535H-696a89.654,89.654,0,0,1-75.989-41.672c-1.154-1.531-1.91-3.463-3.075-5.388l-19.282,41.268-.4,1.545a4.192,4.192,0,0,0-.758,1.934,6.751,6.751,0,0,0,6.548,6.547H-690.2Z" fill="#e31d93" fill-rule="evenodd"/>
    <path id="Path_405" data-name="Path 405" d="M-742.277,653.347h-51.3a3.632,3.632,0,0,0-3.867,3.843h0V799.531L-856.471,924.9l-.757,1.165h0a15.814,15.814,0,0,1-.4,1.922,6.1,6.1,0,0,0,6.189,6.168h29.325s-8.506,0-6.957-6.542l62.508-128.08v-60.56s0-6.567,7.307-6.182h20.842v-75.6h0a3.864,3.864,0,0,0-3.866-3.843Z" fill="#e31d93" fill-rule="evenodd"/>
  </g>
</svg>
