<svg xmlns="http://www.w3.org/2000/svg" width="510.603" height="172.076" viewBox="0 0 510.603 172.076">
  <g id="Group_9" data-name="Group 9" transform="translate(767.164 -1847.519)">
    <g id="Group_388" data-name="Group 388">
      <path id="Path_366" data-name="Path 366" d="M-436.56,1853.9a4.063,4.063,0,0,1-.514,2.573,4.04,4.04,0,0,1-2.557.519h-3.895a4.3,4.3,0,0,1-2.646-.519,4.126,4.126,0,0,1-.522-2.573v-3.278a4.156,4.156,0,0,1,.522-2.58c.346-.35,1.234-.509,2.646-.509h3.895a4.416,4.416,0,0,1,2.613.466c.312.314.458,1.18.458,2.623Z" fill="#e31d93"/>
    </g>
    <g id="Group_424" data-name="Group 424">
      <g id="Group_389" data-name="Group 389">
        <path id="Path_367" data-name="Path 367" d="M-264.271,1979.966a7.7,7.7,0,0,1-7.675-7.881,7.709,7.709,0,0,1,7.7-7.505,7.712,7.712,0,0,1,7.684,7.9A7.717,7.717,0,0,1-264.271,1979.966Zm6.453-7.688a6.457,6.457,0,0,0-6.392-6.43,6.421,6.421,0,0,0-6.451,6.4,6.4,6.4,0,0,0,6.412,6.431A6.419,6.419,0,0,0-257.818,1972.278Z" fill="#e31d93" fill-rule="evenodd"/>
        <path id="Path_368" data-name="Path 368" d="M-262.107,1972.47a1.978,1.978,0,0,1,.88,1.66,10.045,10.045,0,0,0,.056,1.021c.063.306.179.629.272.945a.748.748,0,0,1-.13.016c-.51,0-1.015-.008-1.526.018-.194,0-.27-.069-.288-.23-.061-.421-.116-.853-.177-1.278a6.431,6.431,0,0,0-.157-.822.656.656,0,0,0-.588-.541c-.636-.021-1.258,0-1.924,0v2.845h-1.872v-7.683h.257c1.281,0,2.591-.008,3.879.009a2.146,2.146,0,0,1,2.1,1.3,2.2,2.2,0,0,1-.684,2.658A.26.26,0,0,1-262.107,1972.47Zm-3.582-2.512c0,.576,0,1.131.02,1.683,0,.043.1.131.159.131.546.018,1.082.043,1.631.013a.809.809,0,0,0,.859-.874c0-.6-.253-.918-.793-.953C-264.428,1969.935-265.05,1969.958-265.689,1969.958Z" fill="#e31d93" fill-rule="evenodd"/>
        <path id="Path_369" data-name="Path 369" d="M-262.107,1972.47a1.978,1.978,0,0,1,.88,1.66,10.045,10.045,0,0,0,.056,1.021c.063.306.179.629.272.945a.748.748,0,0,1-.13.016c-.51,0-1.015-.008-1.526.018-.194,0-.27-.069-.288-.23-.061-.421-.116-.853-.177-1.278a6.431,6.431,0,0,0-.157-.822.656.656,0,0,0-.588-.541c-.636-.021-1.258,0-1.924,0v2.845h-1.872v-7.683h.257c1.281,0,2.591-.008,3.879.009a2.146,2.146,0,0,1,2.1,1.3,2.2,2.2,0,0,1-.684,2.658A.26.26,0,0,1-262.107,1972.47Zm-3.582-2.512c0,.576,0,1.131.02,1.683,0,.043.1.131.159.131.546.018,1.082.043,1.631.013a.809.809,0,0,0,.859-.874c0-.6-.253-.918-.793-.953C-264.428,1969.935-265.05,1969.958-265.689,1969.958Z" fill="#e31d93" fill-rule="evenodd"/>
      </g>
      <g id="Group_390" data-name="Group 390">
        <path id="Path_370" data-name="Path 370" d="M-458.242,1906.848c0,1.508-.342,2.445-1.029,2.825a8.618,8.618,0,0,1-3.313.373c-13.527,0-17.72-3.027-17.72-16.8v-42.607c0-1.386.159-2.251.515-2.6.322-.35,1.229-.52,2.656-.52h3.934a4.481,4.481,0,0,1,2.62.468,4.533,4.533,0,0,1,.472,2.655v46.833c0,3.265,5.982,2.954,8.523,2.954,1.528,0,2.469.146,2.827.469.331.32.515,1.2.515,2.64Z" fill="#e31d93"/>
      </g>
      <g id="Group_391" data-name="Group 391">
        <path id="Path_371" data-name="Path 371" d="M-560.56,1878.814h0c0-14.294-7.564-21.855-20.651-21.855h-10.543v43.735h10.339q10.347,0,14.64-4.877a24.918,24.918,0,0,0,6.215-17m11.32-.649c0,11.051-4,19.082-9.99,24.953a22.9,22.9,0,0,1-9.452,5.72,42.1,42.1,0,0,1-11.145,1.208H-599.91c-1.441,0-2.32-.161-2.676-.52a4.08,4.08,0,0,1-.5-2.566v-56.276a4.192,4.192,0,0,1,.5-2.585c.356-.34,1.235-.5,2.676-.5h19.3q14.559,0,22.461,7.764C-552.863,1860.548-549.24,1868.417-549.24,1878.165Z" fill="#e31d93"/>
      </g>
      <g id="Group_392" data-name="Group 392">
        <path id="Path_372" data-name="Path 372" d="M-502.346,1880.942h0a15.3,15.3,0,0,0-3.533-8.915,11.133,11.133,0,0,0-8.7-3.695q-10.944,0-12.606,12.61Zm10.485,4.272c0,1.172-.255,1.9-.745,2.188a5.684,5.684,0,0,1-2.662.433h-31.918q.568,14.541,13,14.551a12.505,12.505,0,0,0,6.84-1.6,12.752,12.752,0,0,0,4.311-5.487c.389-.769,1.392-1.152,3-1.152h3.6c2.193,0,3.3.644,3.3,1.936,0,.965-.933,2.779-2.814,5.432q-6.127,8.523-18.236,8.531c-7.171,0-12.894-2.231-17.121-6.7q-6.371-6.675-6.361-17.452t6.361-18q6.341-7.215,16.929-7.218,10.374,0,16.588,7.17Q-491.878,1874.64-491.861,1885.214Z" fill="#e31d93"/>
      </g>
      <g id="Group_393" data-name="Group 393">
        <path id="Path_373" data-name="Path 373" d="M-436.56,1906.96c0,1.378-.169,2.238-.514,2.566-.34.359-1.188.52-2.557.52h-3.895c-1.412,0-2.3-.161-2.646-.52a4.052,4.052,0,0,1-.522-2.566v-43.446a4.088,4.088,0,0,1,.522-2.569,4.282,4.282,0,0,1,2.646-.518h3.895c1.437,0,2.291.161,2.613.477s.458,1.183.458,2.61Z" fill="#e31d93"/>
      </g>
      <g id="Group_394" data-name="Group 394">
        <path id="Path_374" data-name="Path 374" d="M-387.859,1885.353h0c0-4.689-.99-8.5-3-11.434q-3.431-5.188-10.116-5.179c-4.552,0-7.968,1.72-10.32,5.179-2,3-3.02,6.873-3.02,11.639,0,4.622,1,8.373,2.933,11.235a11.4,11.4,0,0,0,10.017,5.093c4.543,0,8-1.666,10.41-4.988q3.105-4.386,3.094-11.545m10.223,21.495c0,1.423-.18,2.311-.543,2.67s-1.227.528-2.641.528h-3.95a5.072,5.072,0,0,1-2.8-.478c-.4-.327-.574-1.23-.574-2.72v-4.382q-5.455,7.577-15.613,7.58-10.521,0-16.182-7.385c-3.369-4.4-5.069-10.213-5.069-17.4,0-7.25,1.819-13.126,5.453-17.586,3.952-4.748,9.5-7.1,16.625-7.1q10.5,0,15.36,7.491v-4.274a4.263,4.263,0,0,1,.539-2.67c.355-.365,1.285-.541,2.777-.541h3.4c1.492,0,2.406.164,2.728.486s.485,1.231.485,2.725Z" fill="#e31d93"/>
      </g>
      <g id="Group_395" data-name="Group 395">
        <path id="Path_375" data-name="Path 375" d="M-560.316,1961.636h0c.038-4.936-3.7-7.905-8.136-9.01a40.341,40.341,0,0,0-8.918-.648h-14.306v19.439h15.324c7.047,0,16.024.143,16.036-9.781m-4.445-26h0q0-6.184-5.079-7.761a29.6,29.6,0,0,0-7.668-.651h-14.168v16.936h13.808a27.561,27.561,0,0,0,7.929-.829C-566.488,1942.216-564.761,1939.661-564.761,1935.638Zm15.521,26.514c0,19.305-15.638,18.19-23.249,18.19h-27.45c-1.426,0-2.291-.167-2.647-.512a4.063,4.063,0,0,1-.5-2.546V1921.37a4.094,4.094,0,0,1,.5-2.556,4.254,4.254,0,0,1,2.647-.519h24.114a43.753,43.753,0,0,1,11.267,1.124,15.52,15.52,0,0,1,8.829,6.505,14.564,14.564,0,0,1,2.244,7.721c0,6.4-3.015,10.82-9.036,13.315C-554.636,1949.12-549.24,1954.146-549.24,1962.152Z" fill="#e31d93"/>
      </g>
      <g id="Group_396" data-name="Group 396">
        <path id="Path_376" data-name="Path 376" d="M-507.793,1957.375h0q0-6.564-2.812-10.645a10.523,10.523,0,0,0-9.4-4.82q-6.359,0-9.6,4.82c-1.862,2.787-2.811,6.4-2.811,10.827q0,6.461,2.72,10.464a10.643,10.643,0,0,0,9.325,4.719c4.219,0,7.445-1.526,9.681-4.626q2.895-4.1,2.9-10.739m9.492,19.972a3.871,3.871,0,0,1-.507,2.488c-.319.34-1.139.5-2.462.5h-3.672a4.613,4.613,0,0,1-2.591-.451c-.369-.295-.527-1.143-.527-2.535v-4.063q-5.1,7.068-14.515,7.058-9.81,0-15.076-6.861-4.707-6.166-4.707-16.2,0-10.135,5.056-16.379,5.527-6.6,15.463-6.593c6.536,0,11.295,2.32,14.316,6.965l.059-3.938a3.869,3.869,0,0,1,.508-2.478c.322-.336,1.167-.5,2.582-.5h3.14c1.406,0,2.24.145,2.545.45a4.278,4.278,0,0,1,.456,2.532Z" fill="#e31d93"/>
      </g>
      <g id="Group_397" data-name="Group 397">
        <path id="Path_377" data-name="Path 377" d="M-463.693,1940.668c0,2.038-.7,3.039-2.091,2.971h-2.542a9.714,9.714,0,0,0-5.788,1.852,12.263,12.263,0,0,0-4.226,4.645c-1.167,2.351-1.726,6.17-1.726,11.459v15.771a4.011,4.011,0,0,1-.5,2.487c-.321.335-1.185.489-2.555.489H-486.8c-1.363,0-2.219-.154-2.539-.489a4,4,0,0,1-.5-2.487v-39.875a3.906,3.906,0,0,1,.508-2.484c.317-.329,1.176-.5,2.575-.5h3.154a4.3,4.3,0,0,1,2.537.456,4.171,4.171,0,0,1,.462,2.531v6.6q5.142-9.579,14.189-9.592a2.967,2.967,0,0,1,2.226.592,3.92,3.92,0,0,1,.5,2.4Z" fill="#e31d93"/>
      </g>
      <g id="Group_398" data-name="Group 398">
        <path id="Path_378" data-name="Path 378" d="M-429.815,1940.668c0,2.038-.69,3.039-2.094,2.971h-2.534a9.712,9.712,0,0,0-5.788,1.852,12.393,12.393,0,0,0-4.234,4.645c-1.166,2.351-1.724,6.17-1.724,11.459v15.771a3.98,3.98,0,0,1-.505,2.487c-.31.335-1.18.489-2.549.489h-3.675c-1.377,0-2.232-.154-2.552-.489a3.975,3.975,0,0,1-.5-2.487v-39.875a3.925,3.925,0,0,1,.505-2.484c.315-.329,1.178-.5,2.572-.5h3.166a4.29,4.29,0,0,1,2.53.456c.307.306.453,1.143.453,2.531v6.6q5.161-9.579,14.218-9.592a2.976,2.976,0,0,1,2.224.592,4.065,4.065,0,0,1,.487,2.4Z" fill="#e31d93"/>
      </g>
      <g id="Group_399" data-name="Group 399">
        <path id="Path_379" data-name="Path 379" d="M-387.145,1957.375h0q0-6.564-2.808-10.645a10.529,10.529,0,0,0-9.414-4.82,10.8,10.8,0,0,0-9.574,4.82c-1.884,2.787-2.811,6.4-2.811,10.827,0,4.307.9,7.79,2.711,10.464a10.618,10.618,0,0,0,9.315,4.719c4.23,0,7.453-1.526,9.687-4.626,1.937-2.733,2.894-6.31,2.894-10.739m9.509,19.972a3.92,3.92,0,0,1-.5,2.488,3.825,3.825,0,0,1-2.463.5h-3.692a4.631,4.631,0,0,1-2.592-.451c-.354-.295-.536-1.143-.536-2.535v-4.063c-3.4,4.712-8.215,7.058-14.528,7.058q-9.783,0-15.045-6.861-4.728-6.166-4.718-16.2,0-10.135,5.052-16.379c3.7-4.4,8.851-6.593,15.5-6.593q9.765,0,14.289,6.965v-3.783a4.055,4.055,0,0,1,.495-2.484,4.183,4.183,0,0,1,2.568-.5h3.183a4.292,4.292,0,0,1,2.531.456,4.228,4.228,0,0,1,.458,2.531Z" fill="#e31d93"/>
      </g>
      <g id="Group_400" data-name="Group 400">
        <path id="Path_380" data-name="Path 380" d="M-330.275,1977.335c0,1.4-.179,2.252-.569,2.547a4.477,4.477,0,0,1-2.588.46h-33.133a4.272,4.272,0,0,1-2.574-.507c-.388-.338-.6-1.176-.6-2.534v-2.58a3.727,3.727,0,0,1,.821-2.688l.563-.638s23.351-27.482,25.591-29.33h-4.422l-19.548.054a3.934,3.934,0,0,1-2.5-.5,4.02,4.02,0,0,1-.5-2.517v-1.727a3.976,3.976,0,0,1,.5-2.5,3.858,3.858,0,0,1,2.5-.511l33.288-.045a4.06,4.06,0,0,1,2.567.508,4.1,4.1,0,0,1,.505,2.53v1.929a3.984,3.984,0,0,1-.741,2.674,3.281,3.281,0,0,1-.56.631s-23.408,27.656-25.745,30h23.992a4.459,4.459,0,0,1,2.588.461c.39.305.569,1.161.569,2.545Z" fill="#e31d93"/>
      </g>
      <g id="Group_401" data-name="Group 401">
        <path id="Path_381" data-name="Path 381" d="M-287.688,1957.375h0c0-4.376-.9-7.918-2.789-10.645a10.516,10.516,0,0,0-9.4-4.82c-4.251,0-7.423,1.607-9.607,4.82q-2.81,4.18-2.809,10.827,0,6.461,2.732,10.464a10.578,10.578,0,0,0,9.316,4.719c4.232,0,7.443-1.526,9.683-4.626q2.869-4.1,2.871-10.739m9.525,18.989c0,1.333-.173,3.143-.509,3.471a3.787,3.787,0,0,1-2.456.5h-3.681a4.565,4.565,0,0,1-2.59-.451c-.348-.295-.546-2.129-.546-3.518v-3.08q-5.057,7.068-14.521,7.058-9.8,0-15.049-6.861c-3.156-4.111-4.712-9.509-4.712-16.2,0-6.757,1.671-12.208,5.066-16.379,3.681-4.4,8.845-6.593,15.454-6.593q9.792,0,14.308,6.965v-3.938a3.932,3.932,0,0,1,.484-2.478,4.2,4.2,0,0,1,2.6-.5h3.174c1.382,0,2.224.145,2.514.45a4.147,4.147,0,0,1,.468,2.532Z" fill="#e31d93"/>
      </g>
      <g id="Group_402" data-name="Group 402">
        <path id="Path_382" data-name="Path 382" d="M-603.037,2019.185v-18.252h2.669v15.887h7.737v2.365Z" fill="#e31d93"/>
      </g>
      <g id="Group_403" data-name="Group 403">
        <path id="Path_383" data-name="Path 383" d="M-580.188,2007.8h0c-.24-.592-.515-1.46-.73-2.226h-.059a17.5,17.5,0,0,1-.755,2.226l-1.727,4.469h5.005Zm4.542,11.388-1.888-4.718h-6.843l-1.893,4.718h-2.62l7.5-18.5h.959l7.493,18.5Z" fill="#e31d93"/>
      </g>
      <g id="Group_404" data-name="Group 404">
        <path id="Path_384" data-name="Path 384" d="M-562.705,2010.431h-2.506v6.408h2.506c1.842,0,3.586-.97,3.586-3.2,0-2.173-1.744-3.21-3.586-3.21m-.693-7.153h-1.813v4.813h1.813c1.442,0,2.671-.684,2.671-2.377A2.365,2.365,0,0,0-563.4,2003.278Zm1.239,15.907h-5.7v-18.252h4.915a4.72,4.72,0,0,1,4.926,4.781,3.512,3.512,0,0,1-1.634,3.208,4.982,4.982,0,0,1,3.256,4.719A5.469,5.469,0,0,1-562.159,2019.185Z" fill="#e31d93"/>
      </g>
      <g id="Group_405" data-name="Group 405">
        <path id="Path_385" data-name="Path 385" d="M-542.132,2002.964h0a6.711,6.711,0,0,0-6.609,7.078,6.733,6.733,0,0,0,6.609,7.088,6.76,6.76,0,0,0,6.605-7.088,6.738,6.738,0,0,0-6.605-7.078m0,16.571a9.269,9.269,0,0,1-9.321-9.493,9.288,9.288,0,0,1,9.321-9.484,9.281,9.281,0,0,1,9.313,9.484A9.262,9.262,0,0,1-542.132,2019.535Z" fill="#e31d93"/>
      </g>
      <g id="Group_406" data-name="Group 406">
        <path id="Path_386" data-name="Path 386" d="M-522.078,2003.278h-2.467v5.559h2.467a2.724,2.724,0,0,0,3.009-2.784,2.741,2.741,0,0,0-3.009-2.775m5.551,15.907-5.533-8.006h-2.485v8.006h-2.641v-18.252h5.563a5.061,5.061,0,0,1,5.282,5.12,4.869,4.869,0,0,1-3.081,4.7l6.008,8.432Z" fill="#e31d93"/>
      </g>
      <g id="Group_407" data-name="Group 407">
        <path id="Path_387" data-name="Path 387" d="M-501.694,2007.8h0c-.239-.592-.523-1.46-.748-2.226h-.039a17.353,17.353,0,0,1-.753,2.226l-1.735,4.469h5.012Zm4.546,11.388-1.893-4.718h-6.838l-1.888,4.718h-2.621l7.485-18.5h.97l7.473,18.5Z" fill="#e31d93"/>
      </g>
      <g id="Group_408" data-name="Group 408">
        <path id="Path_388" data-name="Path 388" d="M-484.754,2003.3v15.884h-2.67V2003.3h-5.654v-2.368h13.957v2.368Z" fill="#e31d93"/>
      </g>
      <g id="Group_409" data-name="Group 409">
        <path id="Path_389" data-name="Path 389" d="M-466.691,2002.964h0a6.713,6.713,0,0,0-6.615,7.078,6.735,6.735,0,0,0,6.615,7.088,6.758,6.758,0,0,0,6.6-7.088,6.737,6.737,0,0,0-6.6-7.078m0,16.571a9.261,9.261,0,0,1-9.313-9.493,9.281,9.281,0,0,1,9.313-9.484,9.294,9.294,0,0,1,9.312,9.484A9.274,9.274,0,0,1-466.691,2019.535Z" fill="#e31d93"/>
      </g>
      <g id="Group_410" data-name="Group 410">
        <path id="Path_390" data-name="Path 390" d="M-446.665,2003.278h-2.425v5.559h2.425a2.747,2.747,0,0,0,3.043-2.784,2.764,2.764,0,0,0-3.043-2.775m5.574,15.907-5.534-8.006h-2.465v8.006h-2.648v-18.252h5.549a5.058,5.058,0,0,1,5.285,5.12,4.871,4.871,0,0,1-3.077,4.7l6,8.432Z" fill="#e31d93"/>
      </g>
      <g id="Group_411" data-name="Group 411">
        <rect id="Rectangle_21" data-name="Rectangle 21" width="2.683" height="18.252" transform="translate(-433.307 2000.933)" fill="#e31d93"/>
      </g>
      <g id="Group_412" data-name="Group 412">
        <path id="Path_391" data-name="Path 391" d="M-415.259,2002.964h0a6.722,6.722,0,0,0-6.628,7.078,6.743,6.743,0,0,0,6.628,7.088,6.772,6.772,0,0,0,6.609-7.088,6.75,6.75,0,0,0-6.609-7.078m0,16.571a9.254,9.254,0,0,1-9.306-9.493,9.274,9.274,0,0,1,9.306-9.484,9.262,9.262,0,0,1,9.3,9.484A9.243,9.243,0,0,1-415.259,2019.535Z" fill="#e31d93"/>
      </g>
      <g id="Group_413" data-name="Group 413">
        <path id="Path_392" data-name="Path 392" d="M-377.732,2004.169a8.6,8.6,0,0,0-4.414-1.2,6.84,6.84,0,0,0-7.076,7.1,6.8,6.8,0,0,0,7.076,7.066,9.338,9.338,0,0,0,4.85-1.137l-.545,2.66a9.111,9.111,0,0,1-4.6.882,9.3,9.3,0,0,1-9.454-9.471,9.3,9.3,0,0,1,9.454-9.506,10.064,10.064,0,0,1,5.177,1.21Z" fill="#e31d93"/>
      </g>
      <g id="Group_414" data-name="Group 414">
        <path id="Path_393" data-name="Path 393" d="M-371.943,2019.185v-18.252h2.669v15.887h7.737v2.365Z" fill="#e31d93"/>
      </g>
      <g id="Group_415" data-name="Group 415">
        <path id="Path_394" data-name="Path 394" d="M-356.449,2019.185h0v-16h2.666v16Zm.272-18.167-1.365-1.4a14.025,14.025,0,0,0,5.46-3l.5,2.348A13.347,13.347,0,0,1-356.177,2001.018Z" fill="#e31d93"/>
      </g>
      <g id="Group_416" data-name="Group 416">
        <path id="Path_395" data-name="Path 395" d="M-332.1,2019.595l-8.22-9.361c-1.327-1.491-2.82-3.321-4.05-4.813l-.06.03c.06,1.665.06,3.211.06,4.591v9.143h-2.671v-18.252h1.853l7.541,8.593c1.016,1.159,2.609,3,3.68,4.358l.06-.021c-.06-1.4-.06-2.966-.06-4.285v-8.645h2.671v18.662Z" fill="#e31d93"/>
      </g>
      <g id="Group_417" data-name="Group 417">
        <rect id="Rectangle_22" data-name="Rectangle 22" width="2.647" height="18.252" transform="translate(-324.527 2000.933)" fill="#e31d93"/>
      </g>
      <g id="Group_418" data-name="Group 418">
        <path id="Path_396" data-name="Path 396" d="M-301.63,2004.169a8.524,8.524,0,0,0-4.4-1.2,6.829,6.829,0,0,0-7.08,7.1,6.8,6.8,0,0,0,7.08,7.066,9.286,9.286,0,0,0,4.825-1.137l-.545,2.66a9.008,9.008,0,0,1-4.579.882,9.291,9.291,0,0,1-9.472-9.471,9.312,9.312,0,0,1,9.472-9.506,10.023,10.023,0,0,1,5.164,1.21Z" fill="#e31d93"/>
      </g>
      <g id="Group_419" data-name="Group 419">
        <path id="Path_397" data-name="Path 397" d="M-287.631,2002.964h0a6.72,6.72,0,0,0-6.629,7.078,6.742,6.742,0,0,0,6.629,7.088,6.774,6.774,0,0,0,6.606-7.088,6.752,6.752,0,0,0-6.606-7.078m0,16.571a9.259,9.259,0,0,1-9.319-9.493,9.279,9.279,0,0,1,9.319-9.484,9.272,9.272,0,0,1,9.3,9.484A9.253,9.253,0,0,1-287.631,2019.535Z" fill="#e31d93"/>
      </g>
      <g id="Group_420" data-name="Group 420">
        <path id="Path_398" data-name="Path 398" d="M-603.148,1991.088a1.468,1.468,0,0,0,1.456,1.469h322.009a1.455,1.455,0,0,0,1.443-1.469,1.441,1.441,0,0,0-1.443-1.446H-601.692a1.454,1.454,0,0,0-1.456,1.446" fill="#e31d93"/>
      </g>
      <g id="Group_421" data-name="Group 421">
        <path id="Path_399" data-name="Path 399" d="M-653.1,1907.677v-57.785a2.321,2.321,0,0,0-2.316-2.331h-30.3a2.337,2.337,0,0,0-2.328,2.331v83.351l.2.388,38.536,72.25a52.823,52.823,0,0,0,31.587-48.359,52.854,52.854,0,0,0-35.376-49.845" fill="#e31d93"/>
      </g>
      <g id="Group_422" data-name="Group 422">
        <path id="Path_400" data-name="Path 400" d="M-669.65,2010.8h-1.941a52.648,52.648,0,0,1-44.942-24.718,36.169,36.169,0,0,1-1.879-3.1l-11.324,24.365-.4.847a6.03,6.03,0,0,0-.291,1.294,3.707,3.707,0,0,0,3.7,3.7h58.492Z" fill="#e31d93"/>
      </g>
      <g id="Group_423" data-name="Group 423">
        <path id="Path_401" data-name="Path 401" d="M-699.078,1847.519h-30.287a2.335,2.335,0,0,0-2.328,2.334h-.019l.019,84.009-34.867,74.078-.3.656a.505.505,0,0,0-.033.133,5.076,5.076,0,0,0-.271,1.155,3.691,3.691,0,0,0,3.711,3.688h17.232s-5,0-4.008-3.971l36.826-75.739v-35.677s.038-3.889,4.455-3.692h12.207v-44.64a2.349,2.349,0,0,0-2.337-2.334" fill="#e31d93"/>
      </g>
    </g>
  </g>
</svg>
