<?xml version="1.0" standalone="no"?>
<!DOCTYPE svg PUBLIC "-//W3C//DTD SVG 20010904//EN"
 "http://www.w3.org/TR/2001/REC-SVG-20010904/DTD/svg10.dtd">
<svg version="1.0" xmlns="http://www.w3.org/2000/svg"
 width="900.000000pt" height="834.000000pt" viewBox="0 0 900.000000 834.000000"
 preserveAspectRatio="xMidYMid meet">
<metadata>
Created by potrace 1.10, written by Peter Selinger 2001-2011
</metadata>
<g transform="translate(0.000000,834.000000) scale(0.100000,-0.100000)"
fill="#000000" stroke="none">
<path d="M0 4170 l0 -4170 4500 0 4500 0 0 4170 0 4170 -4500 0 -4500 0 0
-4170z m7603 3271 c61 -26 117 -79 147 -138 l25 -48 0 -1690 0 -1690 -25 -49
c-25 -50 -77 -99 -140 -132 -34 -18 -116 -19 -2830 -19 l-2795 0 -54 30 c-63
34 -126 108 -141 165 -7 25 -9 585 -8 1716 l3 1679 22 40 c28 53 80 101 139
131 l49 23 2782 1 c2726 0 2782 0 2826 -19z m236 -5755 c8 -9 10 -143 9 -477
l-3 -464 -57 -3 c-56 -3 -58 -2 -58 22 0 34 -17 42 -43 19 -44 -38 -78 -48
-166 -48 -75 1 -91 4 -126 27 -53 33 -100 87 -128 146 -19 41 -22 63 -22 177
0 146 11 182 81 264 57 66 103 85 204 85 75 0 90 -3 127 -26 23 -15 45 -32 48
-39 17 -27 25 24 24 163 0 81 2 152 6 158 9 15 91 12 104 -4z m-5975 -42 c9
-3 16 -11 16 -16 0 -6 6 -24 14 -41 7 -18 24 -61 36 -97 12 -36 26 -73 31 -82
5 -10 9 -22 9 -27 0 -5 5 -22 12 -38 6 -15 37 -104 68 -198 35 -104 62 -170
70 -170 8 0 25 34 40 75 15 41 32 88 39 103 6 16 11 34 11 41 0 6 4 16 8 22 5
5 19 39 31 77 12 37 29 79 37 95 7 15 14 32 14 38 0 7 7 25 15 40 8 16 15 37
15 46 0 9 4 19 9 23 5 3 13 20 17 37 14 67 29 78 105 78 38 0 71 -5 74 -11 8
-11 19 -116 35 -324 5 -71 14 -175 20 -230 17 -163 28 -319 23 -332 -7 -17
-107 -17 -120 0 -6 6 -13 66 -17 132 -4 66 -11 147 -16 180 -6 33 -13 122 -16
198 -6 133 -7 138 -24 122 -11 -10 -22 -30 -25 -47 -4 -16 -13 -41 -21 -56 -8
-15 -14 -33 -14 -40 0 -7 -4 -20 -9 -30 -5 -9 -42 -105 -81 -212 -39 -107 -78
-205 -86 -218 -13 -20 -22 -23 -66 -20 -45 3 -53 7 -68 33 -9 17 -21 46 -27
65 -18 56 -63 183 -73 205 -5 11 -33 91 -61 178 -33 99 -56 153 -61 145 -4 -7
-8 -52 -8 -99 0 -48 -4 -108 -9 -136 -6 -27 -13 -123 -17 -213 -4 -91 -11
-173 -16 -182 -7 -14 -21 -18 -63 -18 -29 0 -56 4 -59 9 -6 9 5 216 24 441 6
69 15 194 20 278 5 90 14 160 21 168 12 14 112 20 143 8z m2266 -63 c5 -11 10
-49 10 -85 l0 -65 87 -3 87 -3 8 -30 c5 -20 3 -36 -8 -52 -13 -21 -22 -23 -94
-23 l-80 0 0 -200 c0 -165 3 -207 16 -232 l16 -31 73 6 c84 6 97 -1 91 -53 -6
-56 -35 -74 -118 -74 -103 0 -148 25 -186 104 -14 29 -18 76 -22 255 l-5 220
-37 3 c-46 4 -60 21 -56 69 3 37 4 38 48 43 l45 5 5 74 c5 81 12 89 77 90 22
1 36 -5 43 -18z m-975 -173 c46 -30 65 -50 90 -98 16 -30 19 -67 23 -278 2
-134 1 -254 -2 -268 -6 -22 -11 -24 -61 -24 -45 0 -56 4 -65 21 l-11 20 -37
-22 c-53 -31 -180 -32 -237 -2 -74 38 -105 93 -105 183 0 72 15 106 69 152 46
39 146 67 251 71 l65 2 -1 40 c-1 56 -27 92 -78 106 -49 13 -147 5 -189 -16
-17 -8 -39 -15 -49 -15 -17 0 -19 7 -16 57 3 52 6 58 35 74 42 24 72 28 183
25 82 -2 101 -6 135 -28z m635 3 c51 -36 30 -138 -23 -109 -12 6 -59 12 -103
12 -96 1 -124 -15 -124 -70 0 -37 30 -64 110 -99 96 -43 147 -77 173 -117 35
-54 43 -100 26 -150 -17 -52 -42 -83 -93 -116 -38 -25 -48 -27 -151 -26 -93 0
-116 4 -152 22 -43 22 -43 23 -43 77 0 52 1 55 24 55 14 0 27 -4 30 -9 3 -4
37 -16 75 -25 59 -14 77 -15 111 -5 65 20 88 69 54 117 -9 13 -58 43 -109 67
-151 72 -185 112 -185 212 1 47 6 66 28 98 32 46 93 82 149 88 73 7 177 -4
203 -22z m1070 -1 c50 -25 96 -72 121 -124 26 -52 39 -217 19 -241 -10 -13
-47 -15 -226 -15 l-214 0 1 -22 c2 -66 88 -142 170 -151 61 -7 176 6 192 22 6
6 19 11 29 11 15 0 18 -9 18 -55 l0 -55 -46 -22 c-64 -30 -204 -31 -288 -3
-73 24 -152 97 -186 170 -20 43 -23 66 -23 165 0 98 3 122 23 164 43 93 121
159 210 177 55 11 158 0 200 -21z m614 17 c13 -10 17 -24 14 -62 l-3 -50 -58
-5 c-45 -4 -63 -11 -86 -33 -62 -58 -65 -71 -69 -314 l-4 -223 -58 0 c-51 0
-58 2 -64 23 -8 29 -8 596 0 636 6 30 7 31 65 31 56 0 59 -1 59 -24 0 -27 21
-47 28 -28 8 25 71 50 148 61 5 0 18 -5 28 -12z m553 -13 c21 -16 29 -31 31
-60 3 -55 -9 -71 -43 -56 -41 19 -135 26 -181 13 -54 -15 -122 -75 -145 -129
-55 -128 12 -291 135 -326 71 -21 94 -20 162 5 65 24 74 19 74 -43 0 -72 -60
-96 -214 -85 -103 7 -148 29 -217 106 -68 74 -90 134 -90 242 0 147 67 266
184 323 70 34 78 35 184 32 76 -1 98 -6 120 -22z m529 2 c46 -24 84 -65 105
-114 17 -39 19 -72 19 -303 l0 -259 -55 0 c-50 0 -56 3 -65 25 l-9 25 -35 -24
c-40 -27 -125 -41 -183 -30 -46 9 -103 43 -132 80 -47 59 -51 164 -10 231 43
69 121 101 274 112 l90 6 -4 40 c-7 86 -66 122 -180 111 -36 -4 -79 -14 -95
-22 -34 -16 -63 -18 -68 -4 -2 6 -2 31 0 55 4 39 8 48 36 62 48 26 93 32 191
29 57 -3 101 -10 121 -20z m612 18 c21 -6 23 -11 20 -63 l-3 -56 -61 -5 c-69
-6 -85 -16 -121 -77 -25 -44 -26 -47 -26 -246 0 -111 -3 -212 -8 -224 -7 -20
-16 -23 -58 -23 -40 0 -52 4 -61 20 -11 21 -12 419 -1 580 l6 85 53 3 c48 3
53 1 62 -22 9 -23 40 -37 40 -18 0 10 59 40 90 45 41 7 44 7 68 1z"/>
<path d="M1959 7369 c-20 -10 -52 -37 -70 -61 l-34 -42 0 -1696 0 -1695 28
-43 c18 -28 43 -50 75 -65 l47 -22 2775 0 c2634 0 2777 1 2812 18 52 25 96 72
108 117 7 26 9 579 8 1708 l-3 1670 -30 44 c-18 26 -48 52 -75 65 l-45 22
-2780 -1 c-2679 0 -2781 -1 -2816 -19z m2181 -562 c209 -36 383 -113 562 -249
l78 -58 87 65 c49 36 93 69 98 73 22 16 196 102 206 102 6 0 25 7 42 15 76 35
300 75 420 75 77 0 261 -28 352 -53 383 -107 712 -416 844 -795 58 -165 74
-280 68 -472 -9 -255 -93 -493 -250 -705 -54 -73 -228 -234 -311 -288 -75 -50
-202 -117 -220 -117 -5 0 -22 -6 -39 -14 -122 -54 -223 -70 -442 -70 -177 -1
-294 11 -335 33 -9 5 -31 12 -50 16 -19 4 -39 10 -45 14 -5 4 -37 18 -70 31
-102 40 -303 169 -341 219 -10 13 -19 8 -59 -27 -148 -130 -376 -236 -595
-276 -114 -21 -353 -18 -465 7 -103 23 -159 39 -170 48 -5 5 -15 9 -23 9 -24
0 -175 75 -249 124 -286 188 -489 489 -554 821 -21 108 -23 329 -4 435 19 107
64 248 105 330 15 30 36 71 45 90 61 121 252 327 381 413 76 50 238 137 256
137 5 0 24 6 41 14 41 18 99 33 217 56 111 21 285 20 420 -3z"/>
<path d="M4713 6407 c-33 -35 -81 -97 -108 -137 -57 -86 -145 -256 -145 -281
0 -10 -4 -20 -9 -23 -5 -4 -12 -25 -16 -49 -4 -23 -11 -49 -15 -57 -4 -8 -16
-78 -25 -156 -15 -130 -15 -151 -1 -269 16 -132 18 -142 56 -260 44 -136 133
-300 210 -385 22 -25 55 -62 73 -82 37 -44 46 -46 78 -15 92 88 185 223 246
357 61 134 78 186 92 284 5 36 12 70 16 75 3 6 6 70 6 142 1 121 -8 204 -32
304 -26 104 -31 121 -40 129 -5 6 -9 16 -9 22 0 25 -81 180 -132 256 -56 82
-164 208 -177 208 -5 0 -35 -29 -68 -63z"/>
<path d="M7500 1313 c-30 -5 -85 -56 -107 -98 -9 -18 -18 -66 -21 -117 -4 -76
-2 -92 21 -140 13 -30 38 -64 54 -76 91 -64 220 -18 259 93 8 22 14 72 14 110
0 39 -6 88 -14 110 -18 52 -67 102 -113 114 -39 11 -50 12 -93 4z"/>
<path d="M3021 1041 c-80 -6 -84 -7 -112 -41 -34 -40 -37 -71 -10 -109 30 -42
90 -56 149 -36 58 19 84 53 90 116 4 45 -9 82 -27 77 -3 -1 -44 -4 -90 -7z"/>
<path d="M4675 1313 c-47 -12 -115 -101 -115 -150 l0 -23 161 0 162 0 -5 51
c-4 41 -12 57 -40 85 -29 30 -43 36 -89 39 -30 2 -63 1 -74 -2z"/>
<path d="M6450 1040 c-95 -6 -122 -18 -145 -67 -15 -30 -14 -36 0 -68 24 -49
89 -73 148 -54 61 19 93 57 101 120 9 70 2 75 -104 69z"/>
</g>
</svg>
