<?xml version="1.0" standalone="no"?>
<!DOCTYPE svg PUBLIC "-//W3C//DTD SVG 20010904//EN"
 "http://www.w3.org/TR/2001/REC-SVG-20010904/DTD/svg10.dtd">
<svg version="1.0" xmlns="http://www.w3.org/2000/svg"
 width="900.000000pt" height="882.000000pt" viewBox="0 0 900.000000 882.000000"
 preserveAspectRatio="xMidYMid meet">
<metadata>
Created by potrace 1.10, written by Peter Selinger 2001-2011
</metadata>
<g transform="translate(0.000000,882.000000) scale(0.100000,-0.100000)"
fill="#000000" stroke="none">
<path d="M0 4410 l0 -4410 4500 0 4500 0 0 4410 0 4410 -4500 0 -4500 0 0
-4410z m7588 3510 c94 -16 147 -54 208 -150 l29 -45 0 -1805 0 -1805 -22 -40
c-30 -55 -70 -97 -123 -131 l-45 -29 -2974 -3 c-1971 -1 -2986 1 -3011 8 -53
14 -123 71 -161 132 l-34 53 -3 1789 c-1 1166 1 1801 8 1825 26 96 122 183
222 200 78 13 5827 14 5906 1z m-2137 -6117 c56 -33 52 -118 -6 -146 -38 -18
-58 -15 -92 16 -17 15 -23 32 -23 63 0 37 4 45 33 63 39 25 51 26 88 4z
m-2130 -14 c12 -19 11 -76 -1 -99 -8 -16 -15 -18 -36 -10 -31 12 -87 -9 -104
-39 -6 -12 -10 -43 -8 -69 l3 -47 70 -5 70 -5 3 -43 c4 -61 -8 -72 -84 -72
l-64 0 0 -293 c0 -215 -3 -296 -12 -305 -17 -17 -103 -15 -122 3 -13 13 -14
56 -12 293 2 152 1 283 -2 290 -2 7 -22 12 -47 12 -51 0 -75 19 -75 60 0 51 8
60 59 60 25 0 51 4 57 8 6 4 13 37 16 73 8 102 58 174 139 198 46 14 138 8
150 -10z m-511 -48 c14 -28 13 -86 -3 -100 -9 -6 -84 -12 -203 -13 l-189 -3 0
-140 0 -140 160 -3 c149 -2 161 -4 178 -23 20 -25 23 -82 4 -98 -8 -6 -77 -12
-178 -13 l-164 -3 -3 -134 c-2 -90 1 -138 9 -147 9 -11 51 -14 200 -14 l189 0
6 -24 c3 -13 4 -38 2 -57 l-3 -34 -250 -3 c-137 -1 -260 0 -272 3 l-23 5 0
468 c0 351 3 471 12 480 9 9 81 12 265 12 239 0 253 -1 263 -19z m2178 -54 c6
-7 12 -46 14 -87 l3 -75 90 -5 90 -5 3 -46 c2 -29 -2 -50 -10 -57 -8 -6 -50
-12 -93 -14 l-80 -3 -3 -200 c-4 -251 -3 -257 47 -279 32 -15 44 -16 79 -5 58
17 72 8 72 -45 0 -26 -6 -51 -15 -59 -32 -32 -165 -32 -227 -1 -27 14 -68 63
-83 99 -5 11 -11 126 -14 255 l-6 235 -42 3 c-52 4 -65 19 -61 74 3 40 5 43
33 46 75 7 75 6 75 78 0 90 9 104 69 104 28 0 53 -6 59 -13z m-1124 -195 c108
-59 169 -201 149 -348 l-6 -44 -234 0 c-264 0 -261 1 -223 -72 55 -105 175
-150 305 -113 112 32 113 32 120 -8 14 -75 -17 -102 -134 -119 -145 -21 -269
12 -351 95 -52 52 -78 103 -95 194 -13 63 -13 84 0 155 8 46 23 101 34 124 25
51 94 120 140 141 90 40 216 38 295 -5z m774 15 c31 -17 32 -20 32 -77 0 -66
-6 -71 -56 -45 -45 23 -174 20 -224 -6 -120 -63 -166 -223 -100 -353 34 -66
46 -79 108 -106 46 -21 170 -28 187 -11 6 5 27 13 48 16 l38 7 -3 -58 c-3 -58
-4 -59 -43 -79 -57 -28 -170 -32 -243 -10 -106 33 -189 105 -235 205 -18 38
-21 64 -21 165 0 117 1 121 33 180 54 97 140 166 231 186 61 13 211 5 248 -14z
m2199 -13 c60 -29 118 -93 154 -172 19 -40 22 -66 23 -167 1 -117 0 -122 -32
-186 -53 -105 -108 -152 -214 -183 -74 -21 -126 -20 -203 5 -110 35 -193 128
-221 248 -44 185 22 365 164 448 59 35 101 43 196 37 56 -3 94 -12 133 -30z
m-1359 -333 c2 -277 -1 -356 -10 -363 -20 -12 -103 -9 -116 4 -9 9 -12 100
-12 349 0 186 3 345 6 354 5 13 19 15 68 13 l61 -3 3 -354z m260 337 c6 -13
20 -54 32 -93 12 -38 25 -77 30 -85 4 -9 11 -31 15 -50 4 -19 11 -41 15 -50 9
-19 68 -205 76 -244 6 -26 8 -27 19 -12 7 9 32 74 55 144 23 70 48 141 56 159
8 17 14 38 14 47 0 9 5 24 10 34 6 9 21 51 34 92 l24 75 66 3 c59 3 66 1 66
-16 0 -22 -15 -72 -36 -119 -8 -17 -14 -35 -14 -39 0 -8 -55 -162 -71 -199 -5
-11 -18 -49 -30 -85 -11 -36 -27 -79 -35 -97 -8 -17 -14 -37 -14 -45 0 -8 -4
-18 -8 -23 -5 -6 -14 -29 -21 -52 -14 -50 -28 -56 -116 -51 l-59 3 -24 65
c-14 36 -28 74 -32 85 -5 11 -18 49 -30 85 -12 36 -26 74 -30 85 -5 11 -19 52
-31 90 -12 39 -26 75 -30 80 -3 6 -10 26 -14 45 -4 19 -10 40 -13 45 -12 19
-41 110 -42 128 0 14 10 17 63 17 56 0 65 -3 75 -22z"/>
<path d="M1635 7829 c-22 -11 -56 -41 -75 -67 l-35 -45 -3 -1784 c-2 -1743 -2
-1785 17 -1826 21 -45 59 -84 105 -107 25 -13 423 -15 3000 -15 l2971 0 42 28
c24 15 55 46 70 70 l28 42 0 1790 0 1790 -27 42 c-15 23 -44 54 -64 70 l-37
28 -2976 2 -2976 3 -40 -21z m5754 -202 c55 -30 99 -86 111 -140 14 -68 14
-3028 -1 -3096 -14 -65 -79 -134 -144 -150 -64 -16 -5368 -16 -5433 1 -59 15
-126 79 -144 140 -19 62 -19 3052 0 3114 19 63 95 136 153 147 13 2 1239 4
2724 3 2606 -1 2701 -2 2734 -19z"/>
<path d="M1973 7460 l-23 -9 0 -1509 c0 -1159 3 -1511 12 -1520 9 -9 617 -12
2676 -12 2526 0 2665 1 2678 18 11 14 13 286 14 1518 l0 1501 -25 11 c-32 15
-5297 16 -5332 2z m2832 -499 c180 -29 373 -131 507 -268 165 -167 240 -323
274 -564 14 -99 14 -120 0 -215 -18 -117 -36 -181 -73 -264 -28 -61 -90 -168
-110 -188 -7 -7 -13 -17 -13 -21 0 -14 -134 -140 -195 -184 -72 -51 -189 -109
-265 -132 -30 -9 -66 -21 -80 -27 -36 -15 -294 -22 -360 -10 -85 16 -142 31
-177 47 -17 8 -35 15 -41 15 -16 0 -124 61 -191 108 -355 247 -496 737 -325
1129 8 17 14 34 14 37 0 9 92 158 115 186 155 189 377 318 620 358 71 12 203
9 300 -7z"/>
<path d="M4478 6889 c-32 -4 -67 -13 -77 -19 -11 -5 -28 -10 -39 -10 -36 0
-221 -102 -289 -159 -238 -200 -354 -507 -305 -814 16 -103 36 -165 88 -264
100 -196 253 -332 467 -417 97 -39 171 -51 317 -51 146 0 164 3 300 47 183 60
366 210 456 375 7 12 19 35 28 50 50 92 75 174 87 288 31 289 -54 533 -256
740 -113 115 -296 208 -465 234 -75 12 -229 12 -312 0z m216 -275 c9 -8 16
-22 16 -29 0 -19 8 -23 96 -41 150 -31 203 -100 134 -174 -32 -34 -56 -35
-118 -5 -15 8 -45 15 -67 17 l-40 3 -3 -142 -3 -142 73 -36 c126 -61 183 -130
209 -248 11 -49 10 -68 -6 -135 -9 -43 -29 -95 -44 -117 -32 -47 -109 -101
-164 -115 -66 -17 -67 -18 -67 -48 0 -35 -16 -52 -49 -52 -34 0 -44 9 -56 45
-9 26 -17 30 -75 42 -146 29 -250 106 -250 186 0 25 59 97 79 97 5 0 35 -19
67 -43 91 -67 166 -95 176 -67 2 5 2 84 0 174 -3 160 -4 165 -25 171 -39 11
-146 68 -181 97 -77 63 -108 203 -69 308 31 82 119 156 208 175 59 13 64 16
71 48 3 18 12 35 18 39 19 13 54 9 70 -8z"/>
<path d="M4521 6354 c-28 -23 -31 -31 -31 -84 0 -55 2 -60 40 -94 22 -20 49
-36 60 -36 19 0 20 7 20 120 l0 120 -29 0 c-17 0 -42 -11 -60 -26z"/>
<path d="M4704 5887 c-2 -7 -3 -73 -2 -147 3 -159 12 -169 80 -101 l40 41 -4
71 c-4 69 -5 73 -46 110 -44 41 -59 47 -68 26z"/>
<path d="M3614 1372 c-67 -49 -106 -160 -55 -156 6 1 81 2 166 3 l155 1 0 24
c0 45 -36 112 -73 135 -53 33 -142 30 -193 -7z"/>
<path d="M6574 1378 c-63 -48 -94 -111 -101 -200 -9 -112 42 -224 119 -262 39
-20 115 -20 161 -1 150 62 171 357 33 457 -34 25 -48 28 -111 28 -59 0 -77 -4
-101 -22z"/>
</g>
</svg>
