<?xml version="1.0" standalone="no"?>
<!DOCTYPE svg PUBLIC "-//W3C//DTD SVG 20010904//EN"
 "http://www.w3.org/TR/2001/REC-SVG-20010904/DTD/svg10.dtd">
<svg version="1.0" xmlns="http://www.w3.org/2000/svg"
 width="900.000000pt" height="795.000000pt" viewBox="0 0 900.000000 795.000000"
 preserveAspectRatio="xMidYMid meet">
<metadata>
Created by potrace 1.10, written by Peter Selinger 2001-2011
</metadata>
<g transform="translate(0.000000,795.000000) scale(0.100000,-0.100000)"
fill="#000000" stroke="none">
<path d="M0 3975 l0 -3975 4500 0 4500 0 0 3975 0 3975 -4500 0 -4500 0 0
-3975z m7223 3136 c60 -26 108 -70 137 -128 l25 -48 3 -1560 c2 -1091 -1
-1580 -8 -1625 -16 -97 -76 -168 -170 -203 -42 -16 -233 -17 -2677 -17 -2543
0 -2633 1 -2675 19 -55 23 -103 64 -136 115 l-27 41 0 1625 0 1625 37 55 c37
56 55 71 118 101 33 16 216 17 2682 18 2579 1 2647 1 2691 -18z m159 -5485
c24 -29 22 -59 -7 -90 -51 -55 -129 -19 -123 58 3 33 8 42 37 57 38 20 62 14
93 -25z m-3217 24 c24 -9 26 -14 23 -57 l-3 -48 -46 -3 c-61 -4 -89 -33 -92
-93 l-2 -44 60 -3 c64 -3 85 -17 85 -58 0 -34 -25 -47 -85 -45 -30 1 -56 0
-57 -1 -1 -2 -4 -127 -7 -278 l-6 -275 -55 0 -55 0 -5 275 c-3 151 -7 277 -8
279 -1 2 -13 0 -26 -3 -14 -3 -36 -2 -50 4 -21 8 -26 16 -26 44 0 41 14 54 65
58 l40 3 6 55 c7 70 28 118 68 153 45 40 125 56 176 37z m-2611 -56 c9 -24 7
-63 -4 -85 -10 -17 -22 -19 -110 -19 l-100 0 0 -358 c0 -276 -3 -362 -13 -376
-10 -13 -24 -17 -62 -14 l-50 3 -5 370 -5 370 -99 3 c-55 1 -106 8 -113 14
-13 11 -18 89 -6 101 3 4 131 7 284 7 243 0 278 -2 283 -16z m858 -216 c23
-12 56 -43 73 -68 l30 -45 0 -260 0 -260 -45 -3 c-33 -3 -47 1 -57 14 -12 16
-17 17 -46 5 -173 -71 -336 10 -337 167 0 130 91 202 259 202 108 0 116 5 107
63 -13 84 -84 117 -195 91 -35 -8 -70 -19 -78 -25 -28 -24 -44 -2 -41 53 3 47
6 54 33 67 79 38 227 38 297 -1z m675 7 c41 -20 79 -63 97 -110 14 -34 16 -80
14 -285 l-3 -245 -57 -3 -56 -3 -4 238 c-3 207 -5 241 -21 264 -46 68 -156 64
-217 -7 -35 -42 -50 -134 -49 -316 0 -87 -2 -162 -6 -168 -8 -13 -92 -13 -100
-1 -9 16 -7 633 3 643 5 5 29 8 53 6 37 -3 44 -7 49 -28 8 -29 17 -28 69 4 59
38 164 43 228 11z m1568 -5 c91 -40 134 -114 142 -241 9 -136 20 -129 -217
-129 -120 0 -201 -4 -205 -10 -9 -15 42 -96 73 -116 47 -31 128 -42 206 -27
37 7 74 17 81 23 19 15 25 1 25 -55 l0 -52 -46 -18 c-33 -12 -74 -17 -139 -17
-83 0 -100 3 -159 31 -71 34 -118 84 -151 160 -25 58 -26 240 -1 286 9 17 16
35 16 42 0 20 87 102 132 122 72 33 170 34 243 1z m1066 -1 c63 -31 114 -100
133 -176 20 -85 20 -142 0 -171 -15 -21 -20 -22 -214 -22 -109 0 -201 -4 -204
-9 -7 -10 21 -69 43 -92 53 -54 138 -74 231 -53 108 25 105 26 105 -31 0 -48
-1 -50 -40 -69 -30 -14 -63 -19 -135 -19 -82 0 -103 4 -150 26 -124 59 -190
166 -190 308 0 172 110 318 250 332 59 5 133 -5 171 -24z m703 -8 c22 -14 50
-46 63 -70 23 -44 23 -49 21 -300 l-3 -256 -46 -3 c-29 -2 -50 2 -57 10 -6 8
-12 99 -14 245 -3 228 -3 232 -27 257 -42 45 -136 46 -184 2 -57 -53 -62 -75
-67 -301 l-5 -210 -55 0 -55 0 0 325 0 325 55 0 c47 0 55 -3 58 -20 6 -32 22
-42 35 -24 46 61 204 72 281 20z m676 9 c25 -18 30 -28 30 -61 0 -50 -14 -56
-88 -35 -49 13 -65 14 -113 2 -91 -21 -141 -70 -164 -161 -16 -59 -9 -117 22
-177 44 -89 167 -131 270 -92 56 22 73 14 73 -34 0 -28 -7 -45 -26 -63 -24
-22 -33 -24 -137 -24 -90 0 -119 4 -147 19 -63 33 -101 67 -134 120 -128 200
-25 479 194 527 19 4 70 6 112 4 59 -2 84 -8 108 -25z m795 1 c45 -22 64 -40
91 -91 16 -30 19 -65 22 -269 2 -128 1 -244 -2 -257 -6 -21 -12 -24 -57 -24
-35 0 -51 4 -55 15 -8 19 -34 19 -62 -1 -32 -22 -159 -22 -207 0 -74 36 -105
87 -105 176 0 34 5 71 11 83 20 39 71 86 100 92 16 4 31 11 34 16 4 5 50 9
104 9 53 0 102 5 107 10 15 15 1 96 -20 119 -29 32 -96 43 -163 27 -33 -7 -68
-19 -80 -26 -34 -22 -53 -6 -53 42 0 50 6 60 40 78 63 34 226 35 295 1z
m-6127 -13 c2 -16 5 -28 7 -28 2 0 24 14 49 31 39 26 53 30 98 27 47 -3 53 -6
56 -27 2 -13 1 -38 -2 -56 -6 -32 -8 -33 -57 -33 -44 0 -55 -4 -85 -33 -19
-18 -39 -49 -46 -69 -6 -19 -14 -125 -17 -235 l-6 -200 -55 0 -55 0 -3 305
c-1 168 0 315 3 328 5 21 10 23 58 20 48 -3 52 -5 55 -30z m1917 20 c28 -12
38 -39 33 -84 -3 -32 -7 -33 -110 -19 -80 11 -125 0 -142 -34 -24 -46 4 -79
116 -134 51 -25 108 -62 126 -80 81 -83 55 -224 -51 -279 -57 -30 -214 -31
-276 -3 -40 18 -41 19 -41 71 0 54 11 73 33 56 21 -16 114 -42 150 -42 77 0
122 51 95 107 -12 25 -85 71 -138 88 -38 12 -104 62 -122 93 -53 90 -18 204
80 256 34 18 210 21 247 4z m1365 -13 c5 -14 12 -25 14 -25 3 0 22 11 42 25
45 30 138 36 148 9 18 -47 -3 -106 -37 -104 -73 6 -95 -6 -137 -74 -23 -37
-24 -51 -29 -250 l-6 -211 -55 0 -55 0 -3 315 c-1 173 0 320 3 327 3 8 24 13
55 13 45 0 52 -3 60 -25z m2325 -305 l0 -325 -55 0 -55 0 -3 315 c-1 173 0
321 3 328 3 9 21 12 57 10 l53 -3 0 -325z"/>
<path d="M1902 7060 c-40 -9 -90 -43 -117 -79 -20 -26 -20 -44 -23 -1642 l-2
-1616 30 -41 c16 -23 48 -51 69 -62 40 -20 48 -20 2674 -20 2894 0 2671 -5
2736 60 17 17 35 48 41 70 7 26 9 552 8 1622 l-3 1583 -24 38 c-13 21 -42 50
-65 65 l-41 27 -2625 2 c-1444 0 -2640 -2 -2658 -7z m1788 -750 l5 -225 495
-3 c451 -2 496 -4 508 -19 9 -13 12 -96 12 -335 l0 -318 348 2 347 3 3 212 c3
232 6 242 58 198 16 -13 274 -220 574 -460 300 -239 546 -440 548 -445 5 -14
-27 -43 -163 -150 -39 -30 -72 -57 -75 -60 -3 -3 -33 -27 -67 -53 -34 -26 -68
-53 -75 -60 -7 -7 -41 -34 -75 -60 -34 -26 -68 -53 -75 -60 -7 -7 -41 -34 -75
-60 -34 -26 -68 -53 -75 -60 -7 -7 -42 -35 -78 -61 -36 -27 -69 -54 -75 -60
-5 -7 -38 -33 -72 -59 -34 -26 -68 -53 -75 -60 -7 -7 -41 -34 -75 -60 -34 -26
-69 -54 -78 -63 -8 -9 -22 -13 -30 -10 -13 4 -15 40 -15 221 l0 215 -498 0
c-374 0 -501 3 -510 12 -9 9 -12 90 -12 305 l0 292 -331 3 c-181 2 -339 0
-350 -4 -18 -7 -19 -19 -19 -228 0 -182 -3 -222 -14 -226 -12 -5 -109 67 -252
186 -12 10 -52 42 -90 71 -38 30 -75 59 -82 66 -7 7 -41 34 -75 60 -34 26 -68
53 -75 60 -7 7 -41 34 -75 60 -34 26 -68 53 -75 60 -7 7 -41 34 -75 60 -34 26
-68 53 -75 60 -7 7 -41 34 -75 60 -34 26 -64 50 -67 53 -3 4 -30 26 -60 49
-97 75 -150 124 -150 136 0 11 63 67 180 160 25 19 80 63 123 98 43 34 107 85
141 112 84 66 452 361 496 397 19 16 69 55 110 88 41 32 93 75 115 94 69 61
69 60 75 -194z"/>
<path d="M3206 6095 c-214 -172 -396 -319 -405 -327 -9 -7 -48 -38 -86 -68
-39 -30 -72 -57 -75 -60 -3 -3 -27 -23 -54 -44 l-49 -40 30 -25 c44 -38 70
-60 148 -121 39 -30 72 -57 75 -60 3 -3 36 -30 75 -60 38 -30 79 -63 90 -72
11 -9 72 -58 135 -108 63 -50 131 -104 150 -120 19 -15 96 -76 170 -135 74
-59 148 -118 164 -131 17 -13 33 -24 38 -24 4 0 8 85 8 188 0 133 4 192 12
200 9 9 108 12 385 12 l373 0 0 136 c0 76 5 144 11 155 9 18 20 20 115 18 58
-1 110 3 115 8 5 5 8 127 7 299 l-3 289 -495 5 c-272 3 -501 9 -507 13 -10 6
-13 57 -13 198 0 145 -3 189 -12 188 -7 0 -188 -142 -402 -314z"/>
<path d="M2217 1016 c-40 -18 -59 -50 -55 -93 6 -74 108 -108 179 -60 43 29
59 60 59 120 l0 47 -77 -1 c-43 0 -90 -6 -106 -13z"/>
<path d="M4486 1284 c-52 -19 -73 -39 -97 -92 -30 -65 -24 -68 143 -62 l143 5
-3 34 c-4 52 -23 84 -62 103 -53 26 -81 28 -124 12z"/>
<path d="M5543 1284 c-24 -9 -52 -29 -65 -47 -26 -34 -53 -95 -47 -102 2 -2
72 -5 154 -6 l150 -2 3 27 c4 32 -19 85 -45 107 -15 13 -91 41 -104 38 -2 0
-23 -7 -46 -15z"/>
<path d="M7795 1032 c-138 -6 -197 -85 -119 -158 41 -39 89 -45 142 -18 47 23
62 51 62 115 0 65 0 65 -85 61z"/>
</g>
</svg>
