<?xml version="1.0" standalone="no"?>
<!DOCTYPE svg PUBLIC "-//W3C//DTD SVG 20010904//EN"
 "http://www.w3.org/TR/2001/REC-SVG-20010904/DTD/svg10.dtd">
<svg version="1.0" xmlns="http://www.w3.org/2000/svg"
 width="900.000000pt" height="906.000000pt" viewBox="0 0 900.000000 906.000000"
 preserveAspectRatio="xMidYMid meet">
<metadata>
Created by potrace 1.10, written by Peter Selinger 2001-2011
</metadata>
<g transform="translate(0.000000,906.000000) scale(0.100000,-0.100000)"
fill="#000000" stroke="none">
<path d="M0 4530 l0 -4530 4500 0 4500 0 0 4530 0 4530 -4500 0 -4500 0 0
-4530z m7266 3605 c94 -37 143 -80 185 -164 l24 -46 0 -1835 0 -1835 -25 -48
c-30 -60 -96 -122 -156 -147 -45 -20 -93 -20 -3079 -20 l-3034 0 -48 26 c-94
50 -147 119 -169 222 -20 95 -20 3514 0 3607 21 97 63 160 139 208 73 47 -86
45 3113 46 2683 1 3016 -1 3050 -14z m-3159 -6267 c53 -50 12 -138 -65 -138
-61 0 -97 59 -72 119 22 54 90 63 137 19z m-960 -43 c13 -9 24 -31 28 -55 4
-22 10 -42 15 -45 5 -3 11 -23 15 -45 4 -22 10 -42 15 -45 4 -3 11 -21 15 -41
3 -20 10 -44 15 -53 5 -9 23 -63 40 -121 63 -206 102 -326 117 -360 18 -41 16
-46 63 110 18 58 36 114 40 125 5 11 19 54 31 95 13 41 26 80 30 85 4 6 10 26
14 45 4 19 11 40 15 45 4 6 11 26 15 45 4 19 11 40 15 45 4 6 11 26 15 45 4
19 11 40 15 45 4 6 11 25 15 43 9 41 33 54 98 50 45 -3 52 -6 55 -26 3 -20
-14 -79 -39 -137 -5 -11 -18 -49 -29 -85 -12 -36 -25 -74 -30 -85 -5 -11 -26
-69 -45 -130 -20 -60 -40 -119 -45 -130 -5 -11 -19 -49 -30 -85 -12 -36 -25
-74 -30 -85 -5 -11 -21 -56 -35 -100 -41 -123 -43 -125 -123 -125 -37 0 -73 4
-81 9 -7 5 -26 44 -40 87 -14 44 -29 84 -32 89 -4 6 -10 26 -14 45 -4 19 -11
41 -16 50 -4 8 -51 146 -104 305 -53 160 -100 299 -105 310 -18 41 -21 66 -10
80 16 20 99 19 127 0z m1490 -231 c77 -17 93 -32 93 -85 0 -55 -19 -66 -84
-46 -124 40 -220 10 -220 -68 0 -27 6 -42 25 -56 26 -21 163 -89 179 -89 5 0
37 -27 70 -59 l60 -59 0 -71 c0 -101 -28 -149 -109 -192 -75 -39 -271 -34
-343 9 -26 15 -28 21 -28 74 0 57 1 58 28 58 15 0 33 -5 38 -10 14 -14 118
-40 157 -40 48 1 99 31 110 64 16 50 -10 87 -89 125 -135 65 -149 73 -182 104
-48 45 -62 78 -62 142 0 99 54 166 164 200 57 18 113 18 193 -1z m612 0 c66
-21 115 -65 146 -129 l25 -54 -2 -278 -3 -278 -58 -3 c-52 -3 -59 -1 -64 17
-7 26 -13 26 -60 2 -52 -27 -138 -35 -206 -21 -114 23 -193 146 -166 257 30
127 117 180 311 190 121 7 125 10 106 77 -21 76 -65 106 -153 106 -56 0 -150
-24 -161 -41 -3 -5 -16 -9 -30 -9 -23 0 -24 3 -24 59 0 42 5 62 17 72 53 44
232 63 322 33z m-1150 -8 c8 -9 11 -116 9 -372 l-3 -359 -54 -3 c-30 -2 -58 1
-63 6 -9 9 -12 717 -3 733 9 14 101 11 114 -5z"/>
<path d="M1235 8075 c-5 -2 -29 -9 -53 -15 -56 -14 -128 -85 -139 -137 -4 -21
-8 -852 -8 -1848 l0 -1810 22 -35 c33 -53 73 -87 122 -105 39 -13 368 -15
3040 -15 3296 0 3043 -5 3116 61 71 65 65 -100 65 1921 l0 1823 -21 40 c-27
49 -73 91 -119 107 -28 10 -662 13 -3025 15 -1644 1 -2994 0 -3000 -2z m3950
-1111 c39 -9 88 -23 110 -31 123 -45 141 -65 111 -127 -9 -19 -16 -39 -16 -45
0 -6 -5 -19 -10 -29 -6 -9 -28 -64 -49 -122 -21 -57 -46 -109 -54 -114 -11 -7
-36 0 -88 24 -66 30 -86 34 -186 38 -137 6 -173 -1 -212 -37 -45 -42 -42 -83
8 -130 47 -43 82 -71 93 -71 4 0 53 -28 110 -62 129 -77 220 -166 268 -263 34
-69 35 -72 35 -200 0 -119 -2 -136 -29 -203 -31 -81 -75 -145 -144 -209 -51
-48 -150 -110 -190 -119 -15 -4 -31 -10 -37 -14 -5 -4 -44 -15 -85 -26 -102
-25 -363 -25 -465 0 -196 48 -318 123 -277 171 4 6 18 37 31 70 24 63 27 70
60 147 12 26 21 51 21 55 0 4 10 20 23 35 l22 28 75 -36 c105 -51 109 -53 165
-65 99 -21 173 -22 237 -4 67 19 91 36 108 79 29 78 -14 129 -194 226 -78 41
-193 127 -234 174 -83 95 -115 181 -115 311 1 125 38 225 125 337 66 84 239
185 349 203 24 4 51 11 59 16 27 15 299 10 375 -7z m-2811 -17 c9 -4 15 -37
20 -114 4 -59 11 -133 16 -163 5 -30 15 -116 21 -190 6 -74 17 -202 25 -285 9
-82 18 -179 21 -215 6 -72 17 -95 28 -59 10 30 85 193 200 434 213 446 255
535 255 543 0 4 8 17 18 29 17 22 21 23 266 23 136 1 251 -1 254 -4 3 -3 -9
-34 -27 -68 -33 -62 -127 -244 -251 -483 -37 -71 -102 -197 -145 -280 -43 -82
-110 -213 -150 -290 -40 -77 -105 -203 -145 -280 -40 -77 -91 -176 -114 -220
-22 -44 -45 -83 -51 -87 -5 -5 -118 -7 -250 -5 l-239 2 -7 40 c-17 97 -38 244
-65 445 -29 212 -59 428 -91 640 -19 129 -27 226 -19 245 4 12 12 11 41 -8 20
-12 44 -27 53 -32 9 -6 43 -27 74 -48 55 -36 105 -53 63 -21 -11 8 -31 24 -44
36 -14 12 -63 51 -110 87 -47 36 -88 68 -91 71 -3 3 -54 44 -115 90 -60 46
-112 87 -115 90 -3 3 -22 19 -43 35 -32 24 -36 31 -24 39 14 11 713 14 741 3z
m1785 4 c14 -9 12 -34 -23 -211 -15 -75 -31 -163 -60 -320 -9 -47 -23 -119
-31 -160 -21 -106 -41 -211 -59 -310 -8 -47 -17 -92 -20 -100 -3 -8 -10 -44
-16 -80 -10 -61 -19 -111 -56 -300 -8 -41 -19 -106 -26 -145 -6 -38 -16 -76
-21 -82 -15 -20 -440 -18 -457 2 -6 8 -8 20 -4 27 5 7 14 45 21 83 7 39 19
104 27 145 8 41 22 116 31 165 22 115 39 208 60 315 9 47 22 119 30 160 7 41
16 82 19 90 3 8 10 44 16 80 11 68 28 164 53 290 9 41 20 102 26 135 32 174
44 214 65 218 42 8 411 6 425 -2z m2473 -51 c4 -25 12 -92 17 -150 6 -58 15
-132 21 -165 5 -33 14 -105 20 -160 12 -108 31 -270 55 -473 8 -70 20 -167 25
-217 5 -49 14 -124 20 -165 16 -121 33 -262 34 -300 l1 -35 -237 -3 -237 -2
-5 32 c-5 32 -10 90 -22 248 -3 41 -7 90 -10 108 l-5 32 -179 0 -179 0 -20
-29 c-12 -16 -21 -32 -21 -36 0 -3 -9 -25 -19 -48 -47 -103 -104 -225 -123
-264 l-22 -43 -237 0 c-188 0 -238 3 -242 13 -3 8 35 94 83 193 91 184 288
586 495 1009 64 132 146 300 182 373 l66 132 266 -2 266 -3 7 -45z"/>
<path d="M6234 6338 c-7 -23 -39 -95 -101 -227 -27 -58 -31 -76 -21 -83 7 -4
49 -7 93 -6 l80 3 -2 70 c-2 89 -23 254 -34 260 -4 3 -11 -5 -15 -17z"/>
<path d="M5078 1167 c-42 -19 -67 -47 -74 -83 -22 -117 153 -169 243 -72 26
28 46 93 41 133 l-3 30 -90 2 c-53 1 -101 -3 -117 -10z"/>
</g>
</svg>
